<mxfile host="Electron" modified="2024-07-11T07:24:25.116Z" agent="Mozilla/5.0 (Windows NT 10.0; Win64; x64) AppleWebKit/537.36 (KHTML, like Gecko) draw.io/22.1.2 Chrome/114.0.5735.289 Electron/25.9.4 Safari/537.36" etag="2ZIVTLO_onlybDN9Fcff" version="22.1.2" type="device">
  <diagram name="第 1 页" id="SAHKPxjK9V1qAOfatdbY">
    <mxGraphModel dx="2860" dy="809" grid="1" gridSize="10" guides="1" tooltips="1" connect="1" arrows="1" fold="1" page="1" pageScale="1" pageWidth="827" pageHeight="1169" math="1" shadow="0">
      <root>
        <mxCell id="0" />
        <mxCell id="1" parent="0" />
        <mxCell id="4ykmWAmMERI5UxWi80vG-57" style="edgeStyle=orthogonalEdgeStyle;rounded=0;orthogonalLoop=1;jettySize=auto;html=1;fillColor=#f8cecc;strokeColor=#b85450;strokeWidth=3;endArrow=block;endFill=1;" parent="1" source="4ykmWAmMERI5UxWi80vG-2" target="4ykmWAmMERI5UxWi80vG-55" edge="1">
          <mxGeometry relative="1" as="geometry">
            <mxPoint x="-525" y="1090" as="sourcePoint" />
            <mxPoint x="-630.0000000000001" y="1353.25" as="targetPoint" />
            <Array as="points">
              <mxPoint x="-570" y="1180" />
              <mxPoint x="-570" y="1180" />
            </Array>
          </mxGeometry>
        </mxCell>
        <mxCell id="AuwF1tC1Bc51M_fS1eCY-50" value="" style="rounded=1;whiteSpace=wrap;html=1;arcSize=9;opacity=70;fillColor=#f5f5f5;fontColor=#333333;strokeColor=#7EA6E0;strokeWidth=2;dashed=1;" parent="1" vertex="1">
          <mxGeometry x="67" y="110" width="770" height="580" as="geometry" />
        </mxCell>
        <mxCell id="AuwF1tC1Bc51M_fS1eCY-1" value="&lt;span style=&quot;font-size: 19px;&quot;&gt;&lt;b&gt;&lt;font face=&quot;Lucida Console&quot;&gt;Manager&lt;br&gt;&lt;/font&gt;&lt;/b&gt;&lt;/span&gt;" style="text;html=1;align=center;verticalAlign=middle;resizable=0;points=[];autosize=1;strokeColor=#666666;fillColor=#f5f5f5;fontColor=#333333;rounded=1;" parent="1" vertex="1">
          <mxGeometry x="227" y="475" width="110" height="40" as="geometry" />
        </mxCell>
        <mxCell id="AuwF1tC1Bc51M_fS1eCY-2" value="&lt;span style=&quot;font-size: 19px;&quot;&gt;&lt;b&gt;&lt;font face=&quot;Lucida Console&quot;&gt;Reporter&lt;br&gt;&lt;/font&gt;&lt;/b&gt;&lt;/span&gt;" style="text;html=1;align=center;verticalAlign=middle;resizable=0;points=[];autosize=1;strokeColor=#b85450;fillColor=#f8cecc;rounded=1;" parent="1" vertex="1">
          <mxGeometry x="127" y="545" width="120" height="40" as="geometry" />
        </mxCell>
        <mxCell id="AuwF1tC1Bc51M_fS1eCY-3" value="&lt;span style=&quot;font-size: 19px;&quot;&gt;&lt;b&gt;&lt;font face=&quot;Lucida Console&quot;&gt;Receiver&lt;br&gt;&lt;/font&gt;&lt;/b&gt;&lt;/span&gt;" style="text;html=1;align=center;verticalAlign=middle;resizable=0;points=[];autosize=1;strokeColor=#82b366;fillColor=#d5e8d4;rounded=1;" parent="1" vertex="1">
          <mxGeometry x="317" y="545" width="120" height="40" as="geometry" />
        </mxCell>
        <mxCell id="AuwF1tC1Bc51M_fS1eCY-7" style="edgeStyle=orthogonalEdgeStyle;rounded=0;orthogonalLoop=1;jettySize=auto;html=1;entryX=-0.006;entryY=0.433;entryDx=0;entryDy=0;entryPerimeter=0;curved=1;fillColor=#f8cecc;strokeColor=#b85450;strokeWidth=3;endArrow=block;endFill=1;" parent="1" source="AuwF1tC1Bc51M_fS1eCY-2" target="AuwF1tC1Bc51M_fS1eCY-1" edge="1">
          <mxGeometry relative="1" as="geometry" />
        </mxCell>
        <mxCell id="AuwF1tC1Bc51M_fS1eCY-11" style="edgeStyle=orthogonalEdgeStyle;rounded=0;orthogonalLoop=1;jettySize=auto;html=1;entryX=1;entryY=0.4;entryDx=0;entryDy=0;entryPerimeter=0;curved=1;startArrow=block;startFill=1;endArrow=none;endFill=0;fillColor=#d5e8d4;strokeColor=#82b366;strokeWidth=3;" parent="1" source="AuwF1tC1Bc51M_fS1eCY-3" target="AuwF1tC1Bc51M_fS1eCY-1" edge="1">
          <mxGeometry relative="1" as="geometry" />
        </mxCell>
        <mxCell id="AuwF1tC1Bc51M_fS1eCY-14" style="edgeStyle=orthogonalEdgeStyle;rounded=0;orthogonalLoop=1;jettySize=auto;html=1;startArrow=block;startFill=1;endArrow=block;endFill=1;fillColor=#e1d5e7;strokeColor=#9673a6;strokeWidth=3;" parent="1" source="AuwF1tC1Bc51M_fS1eCY-15" target="AuwF1tC1Bc51M_fS1eCY-18" edge="1">
          <mxGeometry relative="1" as="geometry" />
        </mxCell>
        <mxCell id="AuwF1tC1Bc51M_fS1eCY-15" value="&lt;span style=&quot;font-size: 19px;&quot;&gt;&lt;b&gt;&lt;font face=&quot;Lucida Console&quot;&gt;Manager&lt;br&gt;&lt;/font&gt;&lt;/b&gt;&lt;/span&gt;" style="text;html=1;align=center;verticalAlign=middle;resizable=0;points=[];autosize=1;strokeColor=#666666;fillColor=#f5f5f5;fontColor=#333333;rounded=1;" parent="1" vertex="1">
          <mxGeometry x="597" y="475" width="110" height="40" as="geometry" />
        </mxCell>
        <mxCell id="AuwF1tC1Bc51M_fS1eCY-16" value="&lt;span style=&quot;font-size: 19px;&quot;&gt;&lt;b&gt;&lt;font face=&quot;Lucida Console&quot;&gt;Reporter&lt;br&gt;&lt;/font&gt;&lt;/b&gt;&lt;/span&gt;" style="text;html=1;align=center;verticalAlign=middle;resizable=0;points=[];autosize=1;strokeColor=#b85450;fillColor=#f8cecc;rounded=1;" parent="1" vertex="1">
          <mxGeometry x="497" y="545" width="120" height="40" as="geometry" />
        </mxCell>
        <mxCell id="AuwF1tC1Bc51M_fS1eCY-17" value="&lt;span style=&quot;font-size: 19px;&quot;&gt;&lt;b&gt;&lt;font face=&quot;Lucida Console&quot;&gt;Receiver&lt;br&gt;&lt;/font&gt;&lt;/b&gt;&lt;/span&gt;" style="text;html=1;align=center;verticalAlign=middle;resizable=0;points=[];autosize=1;strokeColor=#82b366;fillColor=#d5e8d4;rounded=1;" parent="1" vertex="1">
          <mxGeometry x="687" y="545" width="120" height="40" as="geometry" />
        </mxCell>
        <mxCell id="AuwF1tC1Bc51M_fS1eCY-18" value="&lt;span style=&quot;font-size: 19px;&quot;&gt;&lt;b&gt;&lt;font face=&quot;Lucida Console&quot;&gt;data&lt;br&gt;&lt;/font&gt;&lt;/b&gt;&lt;/span&gt;" style="text;html=1;align=center;verticalAlign=middle;resizable=0;points=[];autosize=1;strokeColor=#9673a6;fillColor=#e1d5e7;rounded=1;" parent="1" vertex="1">
          <mxGeometry x="617" y="375" width="70" height="40" as="geometry" />
        </mxCell>
        <mxCell id="AuwF1tC1Bc51M_fS1eCY-19" style="edgeStyle=orthogonalEdgeStyle;rounded=0;orthogonalLoop=1;jettySize=auto;html=1;entryX=-0.006;entryY=0.433;entryDx=0;entryDy=0;entryPerimeter=0;curved=1;fillColor=#f8cecc;strokeColor=#b85450;strokeWidth=3;endArrow=block;endFill=1;" parent="1" source="AuwF1tC1Bc51M_fS1eCY-16" target="AuwF1tC1Bc51M_fS1eCY-15" edge="1">
          <mxGeometry relative="1" as="geometry" />
        </mxCell>
        <mxCell id="AuwF1tC1Bc51M_fS1eCY-20" style="edgeStyle=orthogonalEdgeStyle;rounded=0;orthogonalLoop=1;jettySize=auto;html=1;entryX=1;entryY=0.4;entryDx=0;entryDy=0;entryPerimeter=0;curved=1;startArrow=block;startFill=1;endArrow=none;endFill=0;fillColor=#d5e8d4;strokeColor=#82b366;strokeWidth=3;" parent="1" source="AuwF1tC1Bc51M_fS1eCY-17" target="AuwF1tC1Bc51M_fS1eCY-15" edge="1">
          <mxGeometry relative="1" as="geometry" />
        </mxCell>
        <mxCell id="AuwF1tC1Bc51M_fS1eCY-21" style="edgeStyle=orthogonalEdgeStyle;rounded=0;orthogonalLoop=1;jettySize=auto;html=1;entryX=0.532;entryY=1.004;entryDx=0;entryDy=0;entryPerimeter=0;dashed=1;strokeWidth=3;fillColor=#f5f5f5;strokeColor=#666666;" parent="1" source="AuwF1tC1Bc51M_fS1eCY-3" target="AuwF1tC1Bc51M_fS1eCY-16" edge="1">
          <mxGeometry relative="1" as="geometry">
            <Array as="points">
              <mxPoint x="387" y="625" />
              <mxPoint x="561" y="625" />
            </Array>
          </mxGeometry>
        </mxCell>
        <mxCell id="AuwF1tC1Bc51M_fS1eCY-23" value="&lt;b&gt;&lt;font color=&quot;#ea6b66&quot; face=&quot;Lucida Console&quot; style=&quot;font-size: 18px;&quot;&gt;SubView&lt;/font&gt;&lt;/b&gt;" style="text;html=1;align=center;verticalAlign=middle;resizable=0;points=[];autosize=1;strokeColor=none;fillColor=none;" parent="1" vertex="1">
          <mxGeometry x="97" y="485" width="100" height="40" as="geometry" />
        </mxCell>
        <mxCell id="AuwF1tC1Bc51M_fS1eCY-24" value="&lt;b&gt;&lt;font color=&quot;#97d077&quot; face=&quot;Lucida Console&quot; style=&quot;font-size: 18px;&quot;&gt;SubView&lt;/font&gt;&lt;/b&gt;" style="text;html=1;align=center;verticalAlign=middle;resizable=0;points=[];autosize=1;strokeColor=none;fillColor=none;" parent="1" vertex="1">
          <mxGeometry x="367" y="485" width="100" height="40" as="geometry" />
        </mxCell>
        <mxCell id="AuwF1tC1Bc51M_fS1eCY-25" style="edgeStyle=orthogonalEdgeStyle;rounded=0;orthogonalLoop=1;jettySize=auto;html=1;startArrow=block;startFill=1;endArrow=block;endFill=1;fillColor=#e1d5e7;strokeColor=#9673a6;strokeWidth=3;" parent="1" source="AuwF1tC1Bc51M_fS1eCY-26" target="AuwF1tC1Bc51M_fS1eCY-29" edge="1">
          <mxGeometry relative="1" as="geometry" />
        </mxCell>
        <mxCell id="AuwF1tC1Bc51M_fS1eCY-26" value="&lt;span style=&quot;font-size: 19px;&quot;&gt;&lt;b&gt;&lt;font face=&quot;Lucida Console&quot;&gt;Manager&lt;br&gt;&lt;/font&gt;&lt;/b&gt;&lt;/span&gt;" style="text;html=1;align=center;verticalAlign=middle;resizable=0;points=[];autosize=1;strokeColor=#666666;fillColor=#f5f5f5;fontColor=#333333;rounded=1;" parent="1" vertex="1">
          <mxGeometry x="527" y="215" width="110" height="40" as="geometry" />
        </mxCell>
        <mxCell id="AuwF1tC1Bc51M_fS1eCY-27" value="&lt;span style=&quot;font-size: 19px;&quot;&gt;&lt;b&gt;&lt;font face=&quot;Lucida Console&quot;&gt;Reporter&lt;br&gt;&lt;/font&gt;&lt;/b&gt;&lt;/span&gt;" style="text;html=1;align=center;verticalAlign=middle;resizable=0;points=[];autosize=1;strokeColor=#b85450;fillColor=#f8cecc;rounded=1;" parent="1" vertex="1">
          <mxGeometry x="407" y="275" width="120" height="40" as="geometry" />
        </mxCell>
        <mxCell id="AuwF1tC1Bc51M_fS1eCY-28" value="&lt;span style=&quot;font-size: 19px;&quot;&gt;&lt;b&gt;&lt;font face=&quot;Lucida Console&quot;&gt;Receiver&lt;br&gt;&lt;/font&gt;&lt;/b&gt;&lt;/span&gt;" style="text;html=1;align=center;verticalAlign=middle;resizable=0;points=[];autosize=1;strokeColor=#82b366;fillColor=#d5e8d4;rounded=1;" parent="1" vertex="1">
          <mxGeometry x="627" y="275" width="120" height="40" as="geometry" />
        </mxCell>
        <mxCell id="AuwF1tC1Bc51M_fS1eCY-29" value="&lt;span style=&quot;font-size: 19px;&quot;&gt;&lt;b&gt;&lt;font face=&quot;Lucida Console&quot;&gt;data&lt;br&gt;&lt;/font&gt;&lt;/b&gt;&lt;/span&gt;" style="text;html=1;align=center;verticalAlign=middle;resizable=0;points=[];autosize=1;strokeColor=#9673a6;fillColor=#e1d5e7;rounded=1;" parent="1" vertex="1">
          <mxGeometry x="547" y="125" width="70" height="40" as="geometry" />
        </mxCell>
        <mxCell id="AuwF1tC1Bc51M_fS1eCY-30" style="edgeStyle=orthogonalEdgeStyle;rounded=0;orthogonalLoop=1;jettySize=auto;html=1;entryX=-0.006;entryY=0.433;entryDx=0;entryDy=0;entryPerimeter=0;curved=1;fillColor=#f8cecc;strokeColor=#b85450;strokeWidth=3;endArrow=block;endFill=1;" parent="1" source="AuwF1tC1Bc51M_fS1eCY-27" target="AuwF1tC1Bc51M_fS1eCY-26" edge="1">
          <mxGeometry relative="1" as="geometry" />
        </mxCell>
        <mxCell id="AuwF1tC1Bc51M_fS1eCY-31" style="edgeStyle=orthogonalEdgeStyle;rounded=0;orthogonalLoop=1;jettySize=auto;html=1;entryX=1;entryY=0.4;entryDx=0;entryDy=0;entryPerimeter=0;curved=1;startArrow=block;startFill=1;endArrow=none;endFill=0;fillColor=#d5e8d4;strokeColor=#82b366;strokeWidth=3;" parent="1" source="AuwF1tC1Bc51M_fS1eCY-28" target="AuwF1tC1Bc51M_fS1eCY-26" edge="1">
          <mxGeometry relative="1" as="geometry" />
        </mxCell>
        <mxCell id="AuwF1tC1Bc51M_fS1eCY-32" style="edgeStyle=orthogonalEdgeStyle;rounded=0;orthogonalLoop=1;jettySize=auto;html=1;startArrow=none;startFill=0;endArrow=block;endFill=1;fillColor=#dae8fc;strokeColor=#6c8ebf;strokeWidth=3;exitX=0.485;exitY=0.001;exitDx=0;exitDy=0;exitPerimeter=0;entryX=0;entryY=0.5;entryDx=0;entryDy=0;entryPerimeter=0;curved=1;dashed=1;" parent="1" source="AuwF1tC1Bc51M_fS1eCY-1" target="AuwF1tC1Bc51M_fS1eCY-27" edge="1">
          <mxGeometry relative="1" as="geometry">
            <mxPoint x="542" y="205" as="sourcePoint" />
            <mxPoint x="542" y="145" as="targetPoint" />
          </mxGeometry>
        </mxCell>
        <mxCell id="AuwF1tC1Bc51M_fS1eCY-36" value="&lt;span style=&quot;font-size: 19px;&quot;&gt;&lt;b&gt;&lt;font face=&quot;Lucida Console&quot;&gt;data&lt;br&gt;&lt;/font&gt;&lt;/b&gt;&lt;/span&gt;" style="text;html=1;align=center;verticalAlign=middle;resizable=0;points=[];autosize=1;strokeColor=#9673a6;fillColor=#e1d5e7;rounded=1;" parent="1" vertex="1">
          <mxGeometry x="127" y="375" width="70" height="40" as="geometry" />
        </mxCell>
        <mxCell id="AuwF1tC1Bc51M_fS1eCY-37" style="edgeStyle=orthogonalEdgeStyle;rounded=0;orthogonalLoop=1;jettySize=auto;html=1;startArrow=block;startFill=1;endArrow=block;endFill=1;fillColor=#e1d5e7;strokeColor=#9673a6;strokeWidth=3;curved=1;exitX=0.364;exitY=0;exitDx=0;exitDy=0;exitPerimeter=0;entryX=1.012;entryY=0.46;entryDx=0;entryDy=0;entryPerimeter=0;" parent="1" source="AuwF1tC1Bc51M_fS1eCY-1" target="AuwF1tC1Bc51M_fS1eCY-36" edge="1">
          <mxGeometry relative="1" as="geometry">
            <mxPoint x="187" y="475" as="sourcePoint" />
            <mxPoint x="187" y="415" as="targetPoint" />
          </mxGeometry>
        </mxCell>
        <mxCell id="AuwF1tC1Bc51M_fS1eCY-38" value="&lt;font size=&quot;1&quot; face=&quot;Lucida Console&quot;&gt;&lt;b style=&quot;font-size: 54px;&quot;&gt;RMR Model&lt;/b&gt;&lt;/font&gt;" style="text;whiteSpace=wrap;html=1;align=center;" parent="1" vertex="1">
          <mxGeometry x="37" y="125" width="480" height="80" as="geometry" />
        </mxCell>
        <mxCell id="AuwF1tC1Bc51M_fS1eCY-41" style="rounded=0;orthogonalLoop=1;jettySize=auto;html=1;fillColor=#f8cecc;strokeColor=#b85450;strokeWidth=3;endArrow=block;endFill=1;" parent="1" edge="1">
          <mxGeometry relative="1" as="geometry">
            <mxPoint x="127" y="225" as="sourcePoint" />
            <mxPoint x="207" y="225.5" as="targetPoint" />
          </mxGeometry>
        </mxCell>
        <mxCell id="AuwF1tC1Bc51M_fS1eCY-42" style="rounded=0;orthogonalLoop=1;jettySize=auto;html=1;fillColor=#d5e8d4;strokeColor=#82b366;strokeWidth=3;endArrow=block;endFill=1;" parent="1" edge="1">
          <mxGeometry relative="1" as="geometry">
            <mxPoint x="127" y="265" as="sourcePoint" />
            <mxPoint x="207" y="265.5" as="targetPoint" />
          </mxGeometry>
        </mxCell>
        <mxCell id="AuwF1tC1Bc51M_fS1eCY-44" value="&lt;div style=&quot;text-align: center;&quot;&gt;&lt;span style=&quot;background-color: initial; font-size: 19px;&quot;&gt;&lt;font color=&quot;#ea6b66&quot; face=&quot;Lucida Console&quot;&gt;&lt;b&gt;Read Write&lt;/b&gt;&lt;/font&gt;&lt;/span&gt;&lt;/div&gt;" style="text;whiteSpace=wrap;html=1;" parent="1" vertex="1">
          <mxGeometry x="217" y="205" width="130" height="50" as="geometry" />
        </mxCell>
        <mxCell id="AuwF1tC1Bc51M_fS1eCY-45" value="&lt;div style=&quot;text-align: center;&quot;&gt;&lt;span style=&quot;background-color: initial; font-size: 19px;&quot;&gt;&lt;font color=&quot;#97d077&quot; face=&quot;Lucida Console&quot;&gt;&lt;b&gt;Read Only&lt;/b&gt;&lt;/font&gt;&lt;/span&gt;&lt;/div&gt;" style="text;whiteSpace=wrap;html=1;" parent="1" vertex="1">
          <mxGeometry x="217" y="245" width="130" height="50" as="geometry" />
        </mxCell>
        <mxCell id="AuwF1tC1Bc51M_fS1eCY-47" value="&lt;b&gt;&lt;font color=&quot;#7ea6e0&quot; face=&quot;Lucida Console&quot; style=&quot;font-size: 18px;&quot;&gt;Hierarchical &lt;br&gt;Data Flow&lt;/font&gt;&lt;/b&gt;" style="text;html=1;align=center;verticalAlign=middle;resizable=0;points=[];autosize=1;strokeColor=none;fillColor=none;" parent="1" vertex="1">
          <mxGeometry x="312" y="345" width="160" height="60" as="geometry" />
        </mxCell>
        <mxCell id="AuwF1tC1Bc51M_fS1eCY-48" value="&lt;font color=&quot;#666666&quot; face=&quot;Lucida Console&quot;&gt;&lt;span style=&quot;font-size: 18px;&quot;&gt;&lt;b style=&quot;&quot;&gt;Peer Relationship&lt;br&gt;Data Flow&lt;br&gt;&lt;/b&gt;&lt;/span&gt;&lt;/font&gt;" style="text;html=1;align=center;verticalAlign=middle;resizable=0;points=[];autosize=1;strokeColor=none;fillColor=none;" parent="1" vertex="1">
          <mxGeometry x="367" y="625" width="210" height="60" as="geometry" />
        </mxCell>
        <mxCell id="4ykmWAmMERI5UxWi80vG-2" value="&lt;div&gt;&lt;span style=&quot;font-size: 19px;&quot;&gt;&lt;b&gt;&lt;font face=&quot;Lucida Console&quot;&gt;Affine Body Geomet&lt;/font&gt;&lt;/b&gt;&lt;/span&gt;&lt;/div&gt;&lt;div&gt;&lt;span style=&quot;font-size: 19px;&quot;&gt;&lt;b&gt;&lt;font face=&quot;Lucida Console&quot;&gt;- build_geoemtry();&lt;/font&gt;&lt;/b&gt;&lt;/span&gt;&lt;/div&gt;" style="text;html=1;align=center;verticalAlign=middle;resizable=1;points=[];autosize=0;strokeColor=#666666;fillColor=#f5f5f5;fontColor=#333333;rounded=1;" parent="1" vertex="1">
          <mxGeometry x="-657" y="1000" width="297" height="130" as="geometry" />
        </mxCell>
        <mxCell id="4ykmWAmMERI5UxWi80vG-4" value="" style="rounded=1;whiteSpace=wrap;html=1;movable=1;resizable=1;rotatable=1;deletable=1;editable=1;locked=0;connectable=1;fillColor=#dae8fc;strokeColor=#6c8ebf;shadow=0;opacity=50;absoluteArcSize=1;arcSize=12;" parent="1" vertex="1">
          <mxGeometry x="-957" y="185" width="740" height="400" as="geometry" />
        </mxCell>
        <mxCell id="4ykmWAmMERI5UxWi80vG-5" value="" style="rounded=1;whiteSpace=wrap;html=1;movable=1;resizable=1;rotatable=1;deletable=1;editable=1;locked=0;connectable=1;fillColor=#d5e8d4;strokeColor=#82b366;shadow=0;opacity=50;absoluteArcSize=1;arcSize=12;" parent="1" vertex="1">
          <mxGeometry x="-767" y="245" width="160" height="295" as="geometry" />
        </mxCell>
        <mxCell id="4ykmWAmMERI5UxWi80vG-6" value="" style="rounded=1;whiteSpace=wrap;html=1;movable=1;resizable=1;rotatable=1;deletable=1;editable=1;locked=0;connectable=1;fillColor=#fff2cc;strokeColor=#d6b656;shadow=0;opacity=50;absoluteArcSize=1;arcSize=12;" parent="1" vertex="1">
          <mxGeometry x="-536" y="375" width="309" height="200" as="geometry" />
        </mxCell>
        <mxCell id="4ykmWAmMERI5UxWi80vG-7" value="" style="rounded=1;whiteSpace=wrap;html=1;movable=1;resizable=1;rotatable=1;deletable=1;editable=1;locked=0;connectable=1;fillColor=#e1d5e7;strokeColor=#9673a6;shadow=0;opacity=50;absoluteArcSize=1;arcSize=12;" parent="1" vertex="1">
          <mxGeometry x="-536" y="225" width="279" height="140" as="geometry" />
        </mxCell>
        <mxCell id="4ykmWAmMERI5UxWi80vG-8" value="" style="rounded=1;whiteSpace=wrap;html=1;movable=1;resizable=1;rotatable=1;deletable=1;editable=1;locked=0;connectable=1;fillColor=#ffe6cc;strokeColor=#d79b00;shadow=0;opacity=50;absoluteArcSize=1;arcSize=12;" parent="1" vertex="1">
          <mxGeometry x="-947" y="245" width="140" height="295" as="geometry" />
        </mxCell>
        <mxCell id="4ykmWAmMERI5UxWi80vG-9" value="&lt;span style=&quot;font-size: 19px;&quot;&gt;&lt;b&gt;&lt;font face=&quot;Lucida Console&quot;&gt;scene&lt;br&gt;&lt;/font&gt;&lt;/b&gt;&lt;/span&gt;" style="text;html=1;align=center;verticalAlign=middle;resizable=0;points=[];autosize=1;strokeColor=#6c8ebf;fillColor=#dae8fc;rounded=1;absoluteArcSize=1;arcSize=12;" parent="1" vertex="1">
          <mxGeometry x="-947" y="195" width="80" height="40" as="geometry" />
        </mxCell>
        <mxCell id="4ykmWAmMERI5UxWi80vG-10" value="&lt;span style=&quot;font-size: 19px;&quot;&gt;&lt;b&gt;&lt;font face=&quot;Lucida Console&quot;&gt;constitution tabular&lt;br&gt;&lt;/font&gt;&lt;/b&gt;&lt;/span&gt;" style="text;html=1;align=center;verticalAlign=middle;resizable=0;points=[];autosize=1;strokeColor=#9673a6;fillColor=#e1d5e7;rounded=1;absoluteArcSize=1;arcSize=12;" parent="1" vertex="1">
          <mxGeometry x="-528" y="235" width="260" height="40" as="geometry" />
        </mxCell>
        <mxCell id="4ykmWAmMERI5UxWi80vG-11" value="&lt;span style=&quot;font-size: 19px;&quot;&gt;&lt;b&gt;&lt;font face=&quot;Lucida Console&quot;&gt;contact tabular&lt;br&gt;&lt;/font&gt;&lt;/b&gt;&lt;/span&gt;" style="text;html=1;align=center;verticalAlign=middle;resizable=0;points=[];autosize=1;strokeColor=#d6b656;fillColor=#fff2cc;rounded=1;absoluteArcSize=1;arcSize=12;" parent="1" vertex="1">
          <mxGeometry x="-523" y="385" width="200" height="40" as="geometry" />
        </mxCell>
        <mxCell id="4ykmWAmMERI5UxWi80vG-12" value="&lt;span style=&quot;font-size: 19px;&quot;&gt;&lt;b&gt;&lt;font face=&quot;Lucida Console&quot;&gt;wood-wood&lt;br&gt;&lt;/font&gt;&lt;/b&gt;&lt;/span&gt;" style="text;html=1;align=center;verticalAlign=middle;resizable=1;points=[];autosize=0;strokeColor=#666666;fillColor=#f5f5f5;rounded=1;absoluteArcSize=1;arcSize=12;fontColor=#333333;imageAspect=1;" parent="1" vertex="1">
          <mxGeometry x="-404" y="470" width="170" height="30" as="geometry" />
        </mxCell>
        <mxCell id="4ykmWAmMERI5UxWi80vG-13" value="&lt;span style=&quot;font-size: 19px;&quot;&gt;&lt;b&gt;&lt;font face=&quot;Lucida Console&quot;&gt;wood-steel&lt;br&gt;&lt;/font&gt;&lt;/b&gt;&lt;/span&gt;" style="text;html=1;align=center;verticalAlign=middle;resizable=1;points=[];autosize=0;strokeColor=#666666;fillColor=#f5f5f5;rounded=1;absoluteArcSize=1;arcSize=12;fontColor=#333333;" parent="1" vertex="1">
          <mxGeometry x="-404" y="500" width="170" height="30" as="geometry" />
        </mxCell>
        <mxCell id="4ykmWAmMERI5UxWi80vG-14" value="&lt;span style=&quot;font-size: 19px;&quot;&gt;&lt;b&gt;&lt;font face=&quot;Lucida Console&quot;&gt;steel-steel&lt;br&gt;&lt;/font&gt;&lt;/b&gt;&lt;/span&gt;" style="text;html=1;align=center;verticalAlign=middle;resizable=1;points=[];autosize=0;strokeColor=#666666;fillColor=#f5f5f5;rounded=1;absoluteArcSize=1;arcSize=12;fontColor=#333333;" parent="1" vertex="1">
          <mxGeometry x="-404" y="530" width="170" height="30" as="geometry" />
        </mxCell>
        <mxCell id="4ykmWAmMERI5UxWi80vG-15" value="&lt;span style=&quot;font-size: 19px;&quot;&gt;&lt;b&gt;&lt;font face=&quot;Lucida Console&quot;&gt;element&lt;br&gt;&lt;/font&gt;&lt;/b&gt;&lt;/span&gt;" style="text;html=1;align=center;verticalAlign=middle;resizable=1;points=[];autosize=0;strokeColor=#d6b656;fillColor=#fff2cc;rounded=1;absoluteArcSize=1;arcSize=12;" parent="1" vertex="1">
          <mxGeometry x="-523" y="435" width="91" height="30" as="geometry" />
        </mxCell>
        <mxCell id="4ykmWAmMERI5UxWi80vG-16" value="&lt;span style=&quot;font-size: 19px;&quot;&gt;&lt;b&gt;&lt;font face=&quot;Lucida Console&quot;&gt;contact models&lt;br&gt;&lt;/font&gt;&lt;/b&gt;&lt;/span&gt;" style="text;html=1;align=center;verticalAlign=middle;resizable=1;points=[];autosize=0;strokeColor=#d6b656;fillColor=#fff2cc;rounded=1;absoluteArcSize=1;arcSize=12;" parent="1" vertex="1">
          <mxGeometry x="-404" y="435" width="170" height="30" as="geometry" />
        </mxCell>
        <mxCell id="4ykmWAmMERI5UxWi80vG-17" style="rounded=0;orthogonalLoop=1;jettySize=auto;html=1;fillColor=#e1d5e7;strokeColor=#9673a6;strokeWidth=3;endArrow=none;endFill=0;startArrow=none;startFill=0;endSize=9;startSize=9;exitX=0.994;exitY=0.509;exitDx=0;exitDy=0;exitPerimeter=0;" parent="1" source="4ykmWAmMERI5UxWi80vG-39" edge="1">
          <mxGeometry relative="1" as="geometry">
            <mxPoint x="-527" y="301" as="targetPoint" />
          </mxGeometry>
        </mxCell>
        <mxCell id="4ykmWAmMERI5UxWi80vG-18" style="rounded=0;orthogonalLoop=1;jettySize=auto;html=1;fillColor=#e1d5e7;strokeColor=#9673a6;strokeWidth=2;endArrow=none;endFill=0;startArrow=none;startFill=0;endSize=9;startSize=9;exitX=1;exitY=0.5;exitDx=0;exitDy=0;exitPerimeter=0;entryX=0.003;entryY=0.347;entryDx=0;entryDy=0;entryPerimeter=0;opacity=60;" parent="1" source="4ykmWAmMERI5UxWi80vG-38" target="4ykmWAmMERI5UxWi80vG-31" edge="1">
          <mxGeometry relative="1" as="geometry">
            <mxPoint x="-609" y="354" as="sourcePoint" />
            <mxPoint x="-518" y="352" as="targetPoint" />
          </mxGeometry>
        </mxCell>
        <mxCell id="4ykmWAmMERI5UxWi80vG-19" style="rounded=0;orthogonalLoop=1;jettySize=auto;html=1;fillColor=#e1d5e7;strokeColor=#9673a6;strokeWidth=2;endArrow=none;endFill=0;startArrow=none;startFill=0;endSize=9;startSize=9;exitX=1;exitY=0.5;exitDx=0;exitDy=0;exitPerimeter=0;entryX=0.002;entryY=0.491;entryDx=0;entryDy=0;entryPerimeter=0;opacity=60;" parent="1" source="4ykmWAmMERI5UxWi80vG-33" target="4ykmWAmMERI5UxWi80vG-31" edge="1">
          <mxGeometry relative="1" as="geometry">
            <mxPoint x="-607" y="415" as="sourcePoint" />
            <mxPoint x="-517" y="309" as="targetPoint" />
          </mxGeometry>
        </mxCell>
        <mxCell id="4ykmWAmMERI5UxWi80vG-20" style="rounded=0;orthogonalLoop=1;jettySize=auto;html=1;fillColor=#e1d5e7;strokeColor=#9673a6;strokeWidth=2;endArrow=none;endFill=0;startArrow=none;startFill=0;endSize=9;startSize=9;exitX=0.986;exitY=0.471;exitDx=0;exitDy=0;exitPerimeter=0;opacity=60;" parent="1" source="4ykmWAmMERI5UxWi80vG-36" edge="1">
          <mxGeometry relative="1" as="geometry">
            <mxPoint x="-609" y="295" as="sourcePoint" />
            <mxPoint x="-527" y="305" as="targetPoint" />
          </mxGeometry>
        </mxCell>
        <mxCell id="4ykmWAmMERI5UxWi80vG-21" style="rounded=0;orthogonalLoop=1;jettySize=auto;html=1;fillColor=#fff2cc;strokeColor=#d6b656;strokeWidth=3;endArrow=none;endFill=0;startArrow=none;startFill=0;endSize=9;startSize=9;exitX=0.986;exitY=0.474;exitDx=0;exitDy=0;exitPerimeter=0;entryX=0.026;entryY=0.577;entryDx=0;entryDy=0;entryPerimeter=0;" parent="1" source="4ykmWAmMERI5UxWi80vG-39" target="4ykmWAmMERI5UxWi80vG-29" edge="1">
          <mxGeometry relative="1" as="geometry">
            <mxPoint x="-617" y="285" as="sourcePoint" />
            <mxPoint x="-517" y="311" as="targetPoint" />
          </mxGeometry>
        </mxCell>
        <mxCell id="4ykmWAmMERI5UxWi80vG-22" style="rounded=0;orthogonalLoop=1;jettySize=auto;html=1;fillColor=#fff2cc;strokeColor=#d6b656;strokeWidth=2;endArrow=none;endFill=0;startArrow=none;startFill=0;endSize=9;startSize=9;entryX=-0.003;entryY=0.437;entryDx=0;entryDy=0;entryPerimeter=0;opacity=60;exitX=1.004;exitY=0.456;exitDx=0;exitDy=0;exitPerimeter=0;" parent="1" source="4ykmWAmMERI5UxWi80vG-36" target="4ykmWAmMERI5UxWi80vG-32" edge="1">
          <mxGeometry relative="1" as="geometry">
            <mxPoint x="-617" y="345" as="sourcePoint" />
            <mxPoint x="-515" y="419" as="targetPoint" />
          </mxGeometry>
        </mxCell>
        <mxCell id="4ykmWAmMERI5UxWi80vG-23" style="rounded=0;orthogonalLoop=1;jettySize=auto;html=1;fillColor=#fff2cc;strokeColor=#d6b656;strokeWidth=2;endArrow=none;endFill=0;startArrow=none;startFill=0;endSize=9;startSize=9;exitX=0.988;exitY=0.525;exitDx=0;exitDy=0;exitPerimeter=0;opacity=60;entryX=0.009;entryY=0.482;entryDx=0;entryDy=0;entryPerimeter=0;" parent="1" source="4ykmWAmMERI5UxWi80vG-38" target="4ykmWAmMERI5UxWi80vG-29" edge="1">
          <mxGeometry relative="1" as="geometry">
            <mxPoint x="-607" y="355" as="sourcePoint" />
            <mxPoint x="-515" y="468" as="targetPoint" />
          </mxGeometry>
        </mxCell>
        <mxCell id="4ykmWAmMERI5UxWi80vG-24" style="rounded=0;orthogonalLoop=1;jettySize=auto;html=1;fillColor=#fff2cc;strokeColor=#d6b656;strokeWidth=2;endArrow=none;endFill=0;startArrow=none;startFill=0;endSize=9;startSize=9;entryX=0.013;entryY=0.528;entryDx=0;entryDy=0;entryPerimeter=0;opacity=60;exitX=1;exitY=0.456;exitDx=0;exitDy=0;exitPerimeter=0;" parent="1" source="4ykmWAmMERI5UxWi80vG-33" target="4ykmWAmMERI5UxWi80vG-32" edge="1">
          <mxGeometry relative="1" as="geometry">
            <mxPoint x="-607" y="355" as="sourcePoint" />
            <mxPoint x="-515" y="468" as="targetPoint" />
          </mxGeometry>
        </mxCell>
        <mxCell id="4ykmWAmMERI5UxWi80vG-25" style="rounded=0;orthogonalLoop=1;jettySize=auto;html=1;fillColor=#d5e8d4;strokeColor=#82b366;strokeWidth=3;endArrow=none;endFill=0;startArrow=none;startFill=0;endSize=9;startSize=9;" parent="1" source="4ykmWAmMERI5UxWi80vG-34" target="4ykmWAmMERI5UxWi80vG-39" edge="1">
          <mxGeometry relative="1" as="geometry">
            <mxPoint x="-748" y="140" as="sourcePoint" />
            <mxPoint x="-626" y="260" as="targetPoint" />
          </mxGeometry>
        </mxCell>
        <mxCell id="4ykmWAmMERI5UxWi80vG-26" style="rounded=0;orthogonalLoop=1;jettySize=auto;html=1;fillColor=#d5e8d4;strokeColor=#82b366;strokeWidth=2;endArrow=none;endFill=0;startArrow=none;startFill=0;endSize=9;startSize=9;opacity=80;entryX=0.019;entryY=0.505;entryDx=0;entryDy=0;entryPerimeter=0;exitX=1.004;exitY=0.452;exitDx=0;exitDy=0;exitPerimeter=0;" parent="1" source="4ykmWAmMERI5UxWi80vG-35" target="4ykmWAmMERI5UxWi80vG-36" edge="1">
          <mxGeometry relative="1" as="geometry">
            <mxPoint x="-609" y="399" as="sourcePoint" />
            <mxPoint x="-517" y="360" as="targetPoint" />
          </mxGeometry>
        </mxCell>
        <mxCell id="4ykmWAmMERI5UxWi80vG-27" style="rounded=0;orthogonalLoop=1;jettySize=auto;html=1;fillColor=#d5e8d4;strokeColor=#82b366;strokeWidth=2;endArrow=none;endFill=0;startArrow=none;startFill=0;endSize=9;startSize=9;opacity=80;exitX=1;exitY=0.507;exitDx=0;exitDy=0;exitPerimeter=0;entryX=-0.002;entryY=0.525;entryDx=0;entryDy=0;entryPerimeter=0;" parent="1" source="4ykmWAmMERI5UxWi80vG-35" target="4ykmWAmMERI5UxWi80vG-38" edge="1">
          <mxGeometry relative="1" as="geometry">
            <mxPoint x="-807" y="400" as="sourcePoint" />
            <mxPoint x="-747" y="400" as="targetPoint" />
          </mxGeometry>
        </mxCell>
        <mxCell id="4ykmWAmMERI5UxWi80vG-28" style="rounded=0;orthogonalLoop=1;jettySize=auto;html=1;fillColor=#d5e8d4;strokeColor=#82b366;strokeWidth=2;endArrow=none;endFill=0;startArrow=none;startFill=0;endSize=9;startSize=9;opacity=80;" parent="1" edge="1">
          <mxGeometry relative="1" as="geometry">
            <mxPoint x="-817" y="510" as="sourcePoint" />
            <mxPoint x="-757" y="510" as="targetPoint" />
          </mxGeometry>
        </mxCell>
        <mxCell id="4ykmWAmMERI5UxWi80vG-29" value="&lt;span style=&quot;font-size: 19px;&quot;&gt;&lt;b&gt;&lt;font face=&quot;Lucida Console&quot;&gt;wood&lt;br&gt;&lt;/font&gt;&lt;/b&gt;&lt;/span&gt;" style="text;html=1;align=center;verticalAlign=middle;resizable=1;points=[];autosize=0;strokeColor=#666666;fillColor=#f5f5f5;rounded=1;absoluteArcSize=1;arcSize=12;fontColor=#333333;imageAspect=1;" parent="1" vertex="1">
          <mxGeometry x="-523" y="470" width="90" height="30" as="geometry" />
        </mxCell>
        <mxCell id="4ykmWAmMERI5UxWi80vG-30" value="&lt;span style=&quot;font-size: 19px;&quot;&gt;&lt;b&gt;&lt;font face=&quot;Lucida Console&quot;&gt;affine body&lt;br&gt;&lt;/font&gt;&lt;/b&gt;&lt;/span&gt;" style="text;html=1;align=center;verticalAlign=middle;resizable=1;points=[];autosize=0;strokeColor=#666666;fillColor=#f5f5f5;rounded=1;absoluteArcSize=1;arcSize=12;fontColor=#333333;" parent="1" vertex="1">
          <mxGeometry x="-528" y="285" width="261" height="30" as="geometry" />
        </mxCell>
        <mxCell id="4ykmWAmMERI5UxWi80vG-31" value="&lt;span style=&quot;font-size: 19px;&quot;&gt;&lt;b&gt;&lt;font face=&quot;Lucida Console&quot;&gt;neo-hookean&lt;br&gt;&lt;/font&gt;&lt;/b&gt;&lt;/span&gt;" style="text;html=1;align=center;verticalAlign=middle;resizable=1;points=[];autosize=0;strokeColor=#666666;fillColor=#f5f5f5;rounded=1;absoluteArcSize=1;arcSize=12;fontColor=#333333;" parent="1" vertex="1">
          <mxGeometry x="-528" y="325" width="261" height="30" as="geometry" />
        </mxCell>
        <mxCell id="4ykmWAmMERI5UxWi80vG-32" value="&lt;span style=&quot;font-size: 19px;&quot;&gt;&lt;b&gt;&lt;font face=&quot;Lucida Console&quot;&gt;steel&lt;br&gt;&lt;/font&gt;&lt;/b&gt;&lt;/span&gt;" style="text;html=1;align=center;verticalAlign=middle;resizable=1;points=[];autosize=0;strokeColor=#666666;fillColor=#f5f5f5;rounded=1;absoluteArcSize=1;arcSize=12;fontColor=#333333;imageAspect=1;" parent="1" vertex="1">
          <mxGeometry x="-522" y="510" width="90" height="30" as="geometry" />
        </mxCell>
        <mxCell id="4ykmWAmMERI5UxWi80vG-33" value="&lt;span style=&quot;font-size: 19px;&quot;&gt;&lt;b&gt;&lt;font face=&quot;Lucida Console&quot;&gt;3:geometry&lt;br&gt;&lt;/font&gt;&lt;/b&gt;&lt;/span&gt;" style="text;html=1;align=center;verticalAlign=middle;resizable=1;points=[];autosize=0;strokeColor=#666666;fillColor=#f5f5f5;rounded=1;absoluteArcSize=1;arcSize=12;fontColor=#333333;" parent="1" vertex="1">
          <mxGeometry x="-757" y="495" width="140" height="35" as="geometry" />
        </mxCell>
        <mxCell id="4ykmWAmMERI5UxWi80vG-34" value="&lt;span style=&quot;font-size: 19px;&quot;&gt;&lt;b&gt;&lt;font face=&quot;Lucida Console&quot;&gt;0:object&lt;br&gt;&lt;/font&gt;&lt;/b&gt;&lt;/span&gt;" style="text;html=1;align=center;verticalAlign=middle;resizable=1;points=[];autosize=0;strokeColor=#666666;fillColor=#f5f5f5;rounded=1;absoluteArcSize=1;arcSize=12;fontColor=#333333;" parent="1" vertex="1">
          <mxGeometry x="-937" y="315" width="120" height="35" as="geometry" />
        </mxCell>
        <mxCell id="4ykmWAmMERI5UxWi80vG-35" value="&lt;span style=&quot;font-size: 19px;&quot;&gt;&lt;b&gt;&lt;font face=&quot;Lucida Console&quot;&gt;1:object&lt;br&gt;&lt;/font&gt;&lt;/b&gt;&lt;/span&gt;" style="text;html=1;align=center;verticalAlign=middle;resizable=1;points=[];autosize=0;strokeColor=#666666;fillColor=#f5f5f5;rounded=1;absoluteArcSize=1;arcSize=12;fontColor=#333333;" parent="1" vertex="1">
          <mxGeometry x="-937" y="405" width="120" height="35" as="geometry" />
        </mxCell>
        <mxCell id="4ykmWAmMERI5UxWi80vG-36" value="&lt;span style=&quot;font-size: 19px;&quot;&gt;&lt;b&gt;&lt;font face=&quot;Lucida Console&quot;&gt;1:geometry&lt;br&gt;&lt;/font&gt;&lt;/b&gt;&lt;/span&gt;" style="text;html=1;align=center;verticalAlign=middle;resizable=1;points=[];autosize=0;strokeColor=#666666;fillColor=#f5f5f5;rounded=1;absoluteArcSize=1;arcSize=12;fontColor=#333333;" parent="1" vertex="1">
          <mxGeometry x="-757" y="375" width="140" height="35" as="geometry" />
        </mxCell>
        <mxCell id="4ykmWAmMERI5UxWi80vG-37" value="&lt;span style=&quot;font-size: 19px;&quot;&gt;&lt;b&gt;&lt;font face=&quot;Lucida Console&quot;&gt;2:object&lt;br&gt;&lt;/font&gt;&lt;/b&gt;&lt;/span&gt;" style="text;html=1;align=center;verticalAlign=middle;resizable=1;points=[];autosize=0;strokeColor=#666666;fillColor=#f5f5f5;rounded=1;absoluteArcSize=1;arcSize=12;fontColor=#333333;" parent="1" vertex="1">
          <mxGeometry x="-937" y="495" width="120" height="35" as="geometry" />
        </mxCell>
        <mxCell id="4ykmWAmMERI5UxWi80vG-38" value="&lt;span style=&quot;font-size: 19px;&quot;&gt;&lt;b&gt;&lt;font face=&quot;Lucida Console&quot;&gt;2:geometry&lt;br&gt;&lt;/font&gt;&lt;/b&gt;&lt;/span&gt;" style="text;html=1;align=center;verticalAlign=middle;resizable=1;points=[];autosize=0;strokeColor=#666666;fillColor=#f5f5f5;rounded=1;absoluteArcSize=1;arcSize=12;fontColor=#333333;" parent="1" vertex="1">
          <mxGeometry x="-757" y="435" width="140" height="35" as="geometry" />
        </mxCell>
        <mxCell id="4ykmWAmMERI5UxWi80vG-39" value="&lt;span style=&quot;font-size: 19px;&quot;&gt;&lt;b&gt;&lt;font face=&quot;Lucida Console&quot;&gt;0:geometry&lt;br&gt;&lt;/font&gt;&lt;/b&gt;&lt;/span&gt;" style="text;html=1;align=center;verticalAlign=middle;resizable=1;points=[];autosize=0;strokeColor=#666666;fillColor=#f5f5f5;rounded=1;absoluteArcSize=1;arcSize=12;fontColor=#333333;" parent="1" vertex="1">
          <mxGeometry x="-757" y="315" width="140" height="35" as="geometry" />
        </mxCell>
        <mxCell id="4ykmWAmMERI5UxWi80vG-40" value="&lt;span style=&quot;font-size: 19px;&quot;&gt;&lt;b&gt;&lt;font face=&quot;Lucida Console&quot;&gt;objects&lt;br&gt;&lt;/font&gt;&lt;/b&gt;&lt;/span&gt;" style="text;html=1;align=center;verticalAlign=middle;resizable=0;points=[];autosize=1;strokeColor=#d79b00;fillColor=#ffe6cc;rounded=1;absoluteArcSize=1;arcSize=12;" parent="1" vertex="1">
          <mxGeometry x="-937" y="255" width="110" height="40" as="geometry" />
        </mxCell>
        <mxCell id="4ykmWAmMERI5UxWi80vG-41" value="&lt;span style=&quot;font-size: 19px;&quot;&gt;&lt;b&gt;&lt;font face=&quot;Lucida Console&quot;&gt;geometries&lt;br&gt;&lt;/font&gt;&lt;/b&gt;&lt;/span&gt;" style="text;html=1;align=center;verticalAlign=middle;resizable=0;points=[];autosize=1;strokeColor=#82b366;fillColor=#d5e8d4;rounded=1;absoluteArcSize=1;arcSize=12;" parent="1" vertex="1">
          <mxGeometry x="-757" y="255" width="140" height="40" as="geometry" />
        </mxCell>
        <mxCell id="4ykmWAmMERI5UxWi80vG-42" value="&lt;div&gt;&lt;span style=&quot;font-size: 19px;&quot;&gt;&lt;b&gt;&lt;font face=&quot;Lucida Console&quot;&gt;Global Vertex System&lt;/font&gt;&lt;/b&gt;&lt;/span&gt;&lt;/div&gt;" style="text;html=1;align=center;verticalAlign=middle;resizable=1;points=[];autosize=1;strokeColor=#666666;fillColor=#f5f5f5;fontColor=#333333;rounded=1;" parent="1" vertex="1">
          <mxGeometry x="-363" y="760" width="323" height="140" as="geometry" />
        </mxCell>
        <mxCell id="4ykmWAmMERI5UxWi80vG-43" style="edgeStyle=orthogonalEdgeStyle;rounded=0;orthogonalLoop=1;jettySize=auto;html=1;fillColor=#f8cecc;strokeColor=#b85450;strokeWidth=3;endArrow=block;endFill=1;" parent="1" source="4ykmWAmMERI5UxWi80vG-2" target="4ykmWAmMERI5UxWi80vG-42" edge="1">
          <mxGeometry relative="1" as="geometry">
            <mxPoint x="-680" y="900.0185714285715" as="sourcePoint" />
            <mxPoint x="-474.97142857142853" y="799.99" as="targetPoint" />
            <Array as="points">
              <mxPoint x="-560" y="790" />
            </Array>
          </mxGeometry>
        </mxCell>
        <mxCell id="4ykmWAmMERI5UxWi80vG-44" value="&lt;b&gt;&lt;font color=&quot;#ea6b66&quot; face=&quot;Lucida Console&quot; style=&quot;font-size: 18px;&quot;&gt;Report&amp;nbsp;&lt;/font&gt;&lt;/b&gt;&lt;div&gt;&lt;b&gt;&lt;font color=&quot;#ea6b66&quot; face=&quot;Lucida Console&quot; style=&quot;font-size: 18px;&quot;&gt;Surface&amp;nbsp;&lt;/font&gt;&lt;/b&gt;&lt;/div&gt;&lt;div&gt;&lt;b&gt;&lt;font color=&quot;#ea6b66&quot; face=&quot;Lucida Console&quot; style=&quot;font-size: 18px;&quot;&gt;Vertex&amp;nbsp;&lt;/font&gt;&lt;/b&gt;&lt;/div&gt;&lt;div&gt;&lt;b&gt;&lt;font color=&quot;#ea6b66&quot; face=&quot;Lucida Console&quot; style=&quot;font-size: 18px;&quot;&gt;Count&lt;/font&gt;&lt;/b&gt;&lt;/div&gt;" style="text;html=1;align=center;verticalAlign=middle;resizable=0;points=[];autosize=1;strokeColor=none;fillColor=none;" parent="1" vertex="1">
          <mxGeometry x="-675.5" y="790" width="110" height="100" as="geometry" />
        </mxCell>
        <mxCell id="4ykmWAmMERI5UxWi80vG-45" style="edgeStyle=orthogonalEdgeStyle;rounded=0;orthogonalLoop=1;jettySize=auto;html=1;startArrow=block;startFill=1;endArrow=none;endFill=0;fillColor=#d5e8d4;strokeColor=#82b366;strokeWidth=3;" parent="1" source="4ykmWAmMERI5UxWi80vG-2" target="4ykmWAmMERI5UxWi80vG-42" edge="1">
          <mxGeometry relative="1" as="geometry">
            <mxPoint x="-240" y="1034" as="sourcePoint" />
            <mxPoint x="-280" y="980" as="targetPoint" />
            <Array as="points">
              <mxPoint x="-540" y="810" />
            </Array>
          </mxGeometry>
        </mxCell>
        <mxCell id="4ykmWAmMERI5UxWi80vG-46" value="&lt;div&gt;&lt;font face=&quot;Lucida Console&quot; color=&quot;#97d077&quot;&gt;&lt;span style=&quot;font-size: 18px;&quot;&gt;&lt;b&gt;Receive&lt;/b&gt;&lt;/span&gt;&lt;/font&gt;&lt;/div&gt;&lt;font face=&quot;Lucida Console&quot; color=&quot;#97d077&quot;&gt;&lt;span style=&quot;font-size: 18px;&quot;&gt;&lt;b&gt;Vertex&amp;nbsp;&lt;/b&gt;&lt;/span&gt;&lt;/font&gt;&lt;b style=&quot;font-size: 18px; color: rgb(151, 208, 119); font-family: &amp;quot;Lucida Console&amp;quot;; background-color: initial;&quot;&gt;ID&lt;/b&gt;&lt;div&gt;&lt;b style=&quot;font-size: 18px; color: rgb(151, 208, 119); font-family: &amp;quot;Lucida Console&amp;quot;; background-color: initial;&quot;&gt;Range&lt;/b&gt;&lt;/div&gt;" style="text;html=1;align=center;verticalAlign=middle;resizable=0;points=[];autosize=1;strokeColor=none;fillColor=none;" parent="1" vertex="1">
          <mxGeometry x="-513" y="860" width="120" height="80" as="geometry" />
        </mxCell>
        <mxCell id="4ykmWAmMERI5UxWi80vG-47" value="&lt;div&gt;&lt;span style=&quot;font-size: 19px;&quot;&gt;&lt;b&gt;&lt;font face=&quot;Lucida Console&quot;&gt;Global Surface System:&lt;/font&gt;&lt;/b&gt;&lt;/span&gt;&lt;/div&gt;&lt;div&gt;&lt;span style=&quot;font-size: 19px;&quot;&gt;&lt;b&gt;&lt;font face=&quot;Lucida Console&quot;&gt;- build_surface();&lt;/font&gt;&lt;/b&gt;&lt;/span&gt;&lt;/div&gt;" style="text;html=1;align=center;verticalAlign=middle;resizable=1;points=[];autosize=0;strokeColor=#666666;fillColor=#f5f5f5;fontColor=#333333;rounded=1;" parent="1" vertex="1">
          <mxGeometry x="92.5" y="890" width="330" height="140" as="geometry" />
        </mxCell>
        <mxCell id="4ykmWAmMERI5UxWi80vG-49" value="&lt;font style=&quot;font-size: 18px;&quot;&gt;$$\mathbf{q},&lt;br&gt;E,\mathbf{g},\mathbf{H}&lt;br&gt;$$&lt;/font&gt;" style="text;html=1;align=center;verticalAlign=middle;resizable=1;points=[];autosize=0;strokeColor=#9673a6;fillColor=#e1d5e7;rounded=1;" parent="1" vertex="1">
          <mxGeometry x="-707" y="1280" width="117" height="70" as="geometry" />
        </mxCell>
        <mxCell id="4ykmWAmMERI5UxWi80vG-50" value="&lt;div&gt;&lt;b style=&quot;font-size: 19px; background-color: initial;&quot;&gt;&lt;font face=&quot;Lucida Console&quot;&gt;$$\mathcal{SV},\mathcal{SE},\mathcal{SF},\mathcal{I}$$&lt;/font&gt;&lt;/b&gt;&lt;/div&gt;" style="text;html=1;align=center;verticalAlign=middle;resizable=1;points=[];autosize=0;strokeColor=#9673a6;fillColor=#e1d5e7;rounded=1;" parent="1" vertex="1">
          <mxGeometry x="167.5" y="845" width="180" height="40" as="geometry" />
        </mxCell>
        <mxCell id="4ykmWAmMERI5UxWi80vG-55" value="&lt;div&gt;&lt;span style=&quot;font-size: 19px;&quot;&gt;&lt;b&gt;&lt;font face=&quot;Lucida Console&quot;&gt;Affine Body Dynamic:&lt;/font&gt;&lt;/b&gt;&lt;/span&gt;&lt;/div&gt;&lt;div&gt;&lt;span style=&quot;font-size: 19px;&quot;&gt;&lt;b&gt;&lt;font face=&quot;Lucida Console&quot;&gt;- integrate();&lt;/font&gt;&lt;/b&gt;&lt;/span&gt;&lt;/div&gt;&lt;div&gt;&lt;span style=&quot;font-size: 19px;&quot;&gt;&lt;b&gt;&lt;font face=&quot;Lucida Console&quot;&gt;- compute_grad_hess();&lt;/font&gt;&lt;/b&gt;&lt;/span&gt;&lt;/div&gt;&lt;div&gt;&lt;br&gt;&lt;/div&gt;" style="text;html=1;align=center;verticalAlign=middle;resizable=1;points=[];autosize=0;strokeColor=#666666;fillColor=#f5f5f5;fontColor=#333333;rounded=1;" parent="1" vertex="1">
          <mxGeometry x="-600" y="1400" width="319" height="210" as="geometry" />
        </mxCell>
        <mxCell id="4ykmWAmMERI5UxWi80vG-67" value="&lt;div&gt;&lt;b style=&quot;font-size: 19px; background-color: initial;&quot;&gt;&lt;font face=&quot;Lucida Console&quot;&gt;$$G2L[],\mathbf{x},\Delta{x}$$&lt;/font&gt;&lt;/b&gt;&lt;/div&gt;" style="text;html=1;align=center;verticalAlign=middle;resizable=1;points=[];autosize=0;strokeColor=#9673a6;fillColor=#e1d5e7;rounded=1;" parent="1" vertex="1">
          <mxGeometry x="-233.5" y="700" width="160" height="40" as="geometry" />
        </mxCell>
        <mxCell id="tcyeyqYYjEs2dD01uN-m-1" value="" style="rounded=1;whiteSpace=wrap;html=1;movable=1;resizable=1;rotatable=1;deletable=1;editable=1;locked=0;connectable=1;fillColor=#d5e8d4;strokeColor=#82b366;shadow=0;opacity=50;absoluteArcSize=1;arcSize=12;" parent="1" vertex="1">
          <mxGeometry x="-967" y="980" width="160" height="100" as="geometry" />
        </mxCell>
        <mxCell id="tcyeyqYYjEs2dD01uN-m-3" value="&lt;span style=&quot;font-size: 19px;&quot;&gt;&lt;b&gt;&lt;font face=&quot;Lucida Console&quot;&gt;1:geometry&lt;br&gt;&lt;/font&gt;&lt;/b&gt;&lt;/span&gt;" style="text;html=1;align=center;verticalAlign=middle;resizable=1;points=[];autosize=0;strokeColor=#666666;fillColor=#f5f5f5;rounded=1;absoluteArcSize=1;arcSize=12;fontColor=#333333;" parent="1" vertex="1">
          <mxGeometry x="-957" y="1030" width="140" height="35" as="geometry" />
        </mxCell>
        <mxCell id="tcyeyqYYjEs2dD01uN-m-5" value="&lt;span style=&quot;font-size: 19px;&quot;&gt;&lt;b&gt;&lt;font face=&quot;Lucida Console&quot;&gt;0:geometry&lt;br&gt;&lt;/font&gt;&lt;/b&gt;&lt;/span&gt;" style="text;html=1;align=center;verticalAlign=middle;resizable=1;points=[];autosize=0;strokeColor=#666666;fillColor=#f5f5f5;rounded=1;absoluteArcSize=1;arcSize=12;fontColor=#333333;" parent="1" vertex="1">
          <mxGeometry x="-957" y="992.5" width="140" height="35" as="geometry" />
        </mxCell>
        <mxCell id="tcyeyqYYjEs2dD01uN-m-14" value="&lt;font color=&quot;#666666&quot; face=&quot;Lucida Console&quot;&gt;&lt;span style=&quot;font-size: 18px;&quot;&gt;&lt;b style=&quot;&quot;&gt;collect&lt;br&gt;affine&lt;br&gt;bodies&lt;/b&gt;&lt;/span&gt;&lt;/font&gt;" style="text;html=1;align=center;verticalAlign=middle;resizable=0;points=[];autosize=1;strokeColor=none;fillColor=none;" parent="1" vertex="1">
          <mxGeometry x="-927" y="900" width="100" height="80" as="geometry" />
        </mxCell>
        <mxCell id="tcyeyqYYjEs2dD01uN-m-15" style="edgeStyle=orthogonalEdgeStyle;rounded=0;orthogonalLoop=1;jettySize=auto;html=1;fillColor=#d5e8d4;strokeColor=#82b366;strokeWidth=3;endArrow=block;endFill=1;exitX=1.001;exitY=0.435;exitDx=0;exitDy=0;exitPerimeter=0;" parent="1" source="tcyeyqYYjEs2dD01uN-m-1" target="4ykmWAmMERI5UxWi80vG-2" edge="1">
          <mxGeometry relative="1" as="geometry">
            <mxPoint x="-760" y="1010" as="sourcePoint" />
            <mxPoint x="-530" y="1330" as="targetPoint" />
            <Array as="points">
              <mxPoint x="-740" y="1024" />
              <mxPoint x="-740" y="1024" />
            </Array>
          </mxGeometry>
        </mxCell>
        <mxCell id="tcyeyqYYjEs2dD01uN-m-19" value="&lt;font style=&quot;font-size: 18px;&quot;&gt;$$V2B$$&lt;/font&gt;" style="text;html=1;align=center;verticalAlign=middle;resizable=1;points=[];autosize=0;strokeColor=#9673a6;fillColor=#e1d5e7;rounded=1;" parent="1" vertex="1">
          <mxGeometry x="-551" y="1130" width="188" height="50" as="geometry" />
        </mxCell>
        <mxCell id="tcyeyqYYjEs2dD01uN-m-20" value="&lt;div&gt;&lt;span style=&quot;font-size: 19px;&quot;&gt;&lt;b&gt;&lt;font face=&quot;Lucida Console&quot;&gt;ABD Constitution 1&lt;/font&gt;&lt;/b&gt;&lt;/span&gt;&lt;/div&gt;" style="text;html=1;align=center;verticalAlign=middle;resizable=0;points=[];autosize=1;strokeColor=#d6b656;fillColor=#fff2cc;rounded=1;" parent="1" vertex="1">
          <mxGeometry x="-1015" y="1490" width="240" height="40" as="geometry" />
        </mxCell>
        <mxCell id="tcyeyqYYjEs2dD01uN-m-24" style="edgeStyle=orthogonalEdgeStyle;rounded=0;orthogonalLoop=1;jettySize=auto;html=1;fillColor=#f8cecc;strokeColor=#b85450;strokeWidth=3;endArrow=block;endFill=1;" parent="1" source="4ykmWAmMERI5UxWi80vG-2" target="tcyeyqYYjEs2dD01uN-m-1" edge="1">
          <mxGeometry relative="1" as="geometry">
            <mxPoint x="-750" y="1020" as="sourcePoint" />
            <mxPoint x="-647" y="1020" as="targetPoint" />
            <Array as="points">
              <mxPoint x="-720" y="1050" />
              <mxPoint x="-720" y="1050" />
            </Array>
          </mxGeometry>
        </mxCell>
        <mxCell id="tcyeyqYYjEs2dD01uN-m-25" value="&lt;b&gt;&lt;font color=&quot;#ea6b66&quot; face=&quot;Lucida Console&quot; style=&quot;font-size: 18px;&quot;&gt;Report&amp;nbsp;&lt;/font&gt;&lt;/b&gt;&lt;div&gt;&lt;font face=&quot;Lucida Console&quot; color=&quot;#ea6b66&quot;&gt;&lt;span style=&quot;font-size: 18px;&quot;&gt;&lt;b&gt;Transform&lt;/b&gt;&lt;/span&gt;&lt;/font&gt;&lt;/div&gt;" style="text;html=1;align=center;verticalAlign=middle;resizable=0;points=[];autosize=1;strokeColor=none;fillColor=none;" parent="1" vertex="1">
          <mxGeometry x="-787" y="1050" width="120" height="60" as="geometry" />
        </mxCell>
        <mxCell id="tcyeyqYYjEs2dD01uN-m-26" value="&lt;div&gt;&lt;font face=&quot;Lucida Console&quot; color=&quot;#97d077&quot;&gt;&lt;span style=&quot;font-size: 18px;&quot;&gt;&lt;b&gt;Receive&lt;/b&gt;&lt;/span&gt;&lt;/font&gt;&lt;/div&gt;&lt;div&gt;&lt;font face=&quot;Lucida Console&quot; color=&quot;#97d077&quot;&gt;&lt;span style=&quot;font-size: 18px;&quot;&gt;&lt;b&gt;Rest Shape&lt;/b&gt;&lt;/span&gt;&lt;/font&gt;&lt;/div&gt;&lt;div&gt;&lt;font face=&quot;Lucida Console&quot; color=&quot;#97d077&quot;&gt;&lt;span style=&quot;font-size: 18px;&quot;&gt;&lt;b&gt;Transform&lt;/b&gt;&lt;/span&gt;&lt;/font&gt;&lt;/div&gt;&lt;div&gt;&lt;font face=&quot;Lucida Console&quot; color=&quot;#97d077&quot;&gt;&lt;span style=&quot;font-size: 18px;&quot;&gt;&lt;b&gt;...&lt;/b&gt;&lt;/span&gt;&lt;/font&gt;&lt;/div&gt;" style="text;html=1;align=center;verticalAlign=middle;resizable=0;points=[];autosize=1;strokeColor=none;fillColor=none;" parent="1" vertex="1">
          <mxGeometry x="-807" y="927.5" width="140" height="100" as="geometry" />
        </mxCell>
        <mxCell id="tcyeyqYYjEs2dD01uN-m-27" style="edgeStyle=orthogonalEdgeStyle;rounded=0;orthogonalLoop=1;jettySize=auto;html=1;fillColor=#d5e8d4;strokeColor=#82b366;strokeWidth=3;endArrow=block;endFill=1;" parent="1" source="4ykmWAmMERI5UxWi80vG-2" target="tcyeyqYYjEs2dD01uN-m-20" edge="1">
          <mxGeometry relative="1" as="geometry">
            <mxPoint x="-957" y="1180" as="sourcePoint" />
            <mxPoint x="-807" y="1180" as="targetPoint" />
            <Array as="points">
              <mxPoint x="-600" y="1180" />
              <mxPoint x="-867" y="1180" />
            </Array>
          </mxGeometry>
        </mxCell>
        <mxCell id="tcyeyqYYjEs2dD01uN-m-29" value="&lt;div&gt;&lt;span style=&quot;font-size: 19px;&quot;&gt;&lt;b&gt;&lt;font face=&quot;Lucida Console&quot;&gt;ABD Constitution 2&lt;/font&gt;&lt;/b&gt;&lt;/span&gt;&lt;/div&gt;" style="text;html=1;align=center;verticalAlign=middle;resizable=0;points=[];autosize=1;strokeColor=#d6b656;fillColor=#fff2cc;rounded=1;" parent="1" vertex="1">
          <mxGeometry x="-1015" y="1530" width="240" height="40" as="geometry" />
        </mxCell>
        <mxCell id="tcyeyqYYjEs2dD01uN-m-31" value="&lt;div&gt;&lt;font face=&quot;Lucida Console&quot; color=&quot;#97d077&quot;&gt;&lt;span style=&quot;font-size: 18px;&quot;&gt;&lt;b&gt;Sort&amp;nbsp;&lt;/b&gt;&lt;/span&gt;&lt;/font&gt;&lt;/div&gt;&lt;div&gt;&lt;font face=&quot;Lucida Console&quot; color=&quot;#97d077&quot;&gt;&lt;span style=&quot;font-size: 18px;&quot;&gt;&lt;b&gt;Geometry&amp;nbsp;&lt;/b&gt;&lt;/span&gt;&lt;/font&gt;&lt;b style=&quot;font-size: 18px; color: rgb(151, 208, 119); font-family: &amp;quot;Lucida Console&amp;quot;; background-color: initial;&quot;&gt;By&lt;/b&gt;&lt;/div&gt;&lt;div&gt;&lt;font face=&quot;Lucida Console&quot; color=&quot;#97d077&quot;&gt;&lt;span style=&quot;font-size: 18px;&quot;&gt;&lt;b&gt;Constitution&lt;/b&gt;&lt;/span&gt;&lt;/font&gt;&lt;/div&gt;&lt;div&gt;&lt;font face=&quot;Lucida Console&quot; color=&quot;#97d077&quot;&gt;&lt;span style=&quot;font-size: 18px;&quot;&gt;&lt;b&gt;ID&lt;/b&gt;&lt;/span&gt;&lt;/font&gt;&lt;/div&gt;" style="text;html=1;align=center;verticalAlign=middle;resizable=0;points=[];autosize=1;strokeColor=none;fillColor=none;" parent="1" vertex="1">
          <mxGeometry x="-1030" y="1220" width="160" height="100" as="geometry" />
        </mxCell>
        <mxCell id="tcyeyqYYjEs2dD01uN-m-32" value="&lt;font style=&quot;font-size: 18px;&quot;&gt;$$\kappa[], C2B[]$$&lt;/font&gt;" style="text;html=1;align=center;verticalAlign=middle;resizable=1;points=[];autosize=0;strokeColor=#9673a6;fillColor=#e1d5e7;rounded=1;" parent="1" vertex="1">
          <mxGeometry x="-1170" y="1490" width="155" height="40" as="geometry" />
        </mxCell>
        <mxCell id="tcyeyqYYjEs2dD01uN-m-33" value="&lt;font style=&quot;font-size: 18px;&quot;&gt;$$\mu[],\lambda[],C2B[]$$&lt;/font&gt;" style="text;html=1;align=center;verticalAlign=middle;resizable=1;points=[];autosize=0;strokeColor=#9673a6;fillColor=#e1d5e7;rounded=1;" parent="1" vertex="1">
          <mxGeometry x="-1168" y="1530" width="155" height="40" as="geometry" />
        </mxCell>
        <mxCell id="tcyeyqYYjEs2dD01uN-m-36" value="&lt;b&gt;&lt;font color=&quot;#ea6b66&quot; face=&quot;Lucida Console&quot; style=&quot;font-size: 18px;&quot;&gt;Report&amp;nbsp;&lt;/font&gt;&lt;/b&gt;&lt;div&gt;&lt;font face=&quot;Lucida Console&quot; color=&quot;#ea6b66&quot;&gt;&lt;span style=&quot;font-size: 18px;&quot;&gt;&lt;b&gt;G2L&lt;/b&gt;&lt;/span&gt;&lt;/font&gt;&lt;/div&gt;" style="text;html=1;align=center;verticalAlign=middle;resizable=0;points=[];autosize=1;strokeColor=none;fillColor=none;" parent="1" vertex="1">
          <mxGeometry x="-517" y="720" width="100" height="60" as="geometry" />
        </mxCell>
        <mxCell id="tcyeyqYYjEs2dD01uN-m-37" value="&lt;b&gt;&lt;font color=&quot;#ea6b66&quot; face=&quot;Lucida Console&quot; style=&quot;font-size: 18px;&quot;&gt;Report&amp;nbsp;&lt;/font&gt;&lt;/b&gt;&lt;div&gt;&lt;font face=&quot;Lucida Console&quot; color=&quot;#ea6b66&quot;&gt;&lt;span style=&quot;font-size: 18px;&quot;&gt;&lt;b&gt;Body&lt;/b&gt;&lt;/span&gt;&lt;/font&gt;&lt;/div&gt;&lt;div&gt;&lt;font face=&quot;Lucida Console&quot; color=&quot;#ea6b66&quot;&gt;&lt;span style=&quot;font-size: 18px;&quot;&gt;&lt;b&gt;Count&lt;/b&gt;&lt;/span&gt;&lt;/font&gt;&lt;/div&gt;" style="text;html=1;align=center;verticalAlign=middle;resizable=0;points=[];autosize=1;strokeColor=none;fillColor=none;" parent="1" vertex="1">
          <mxGeometry x="-570" y="1190" width="100" height="80" as="geometry" />
        </mxCell>
        <mxCell id="tcyeyqYYjEs2dD01uN-m-40" value="&lt;div&gt;&lt;font face=&quot;Lucida Console&quot; color=&quot;#97d077&quot;&gt;&lt;span style=&quot;font-size: 18px;&quot;&gt;&lt;b&gt;*Body&lt;/b&gt;&lt;/span&gt;&lt;/font&gt;&lt;/div&gt;&lt;div&gt;&lt;font face=&quot;Lucida Console&quot; color=&quot;#97d077&quot;&gt;&lt;span style=&quot;font-size: 18px;&quot;&gt;&lt;b&gt;Changing&lt;/b&gt;&lt;/span&gt;&lt;/font&gt;&lt;/div&gt;&lt;div&gt;&lt;font face=&quot;Lucida Console&quot; color=&quot;#97d077&quot;&gt;&lt;span style=&quot;font-size: 18px;&quot;&gt;&lt;b&gt;Info&lt;/b&gt;&lt;/span&gt;&lt;/font&gt;&lt;/div&gt;" style="text;html=1;align=center;verticalAlign=middle;resizable=0;points=[];autosize=1;strokeColor=none;fillColor=none;" parent="1" vertex="1">
          <mxGeometry x="-860" y="1230" width="110" height="80" as="geometry" />
        </mxCell>
        <mxCell id="tcyeyqYYjEs2dD01uN-m-41" style="edgeStyle=orthogonalEdgeStyle;rounded=0;orthogonalLoop=1;jettySize=auto;html=1;fillColor=#f8cecc;strokeColor=#b85450;strokeWidth=3;endArrow=block;endFill=1;" parent="1" source="tcyeyqYYjEs2dD01uN-m-20" target="4ykmWAmMERI5UxWi80vG-55" edge="1">
          <mxGeometry relative="1" as="geometry">
            <mxPoint x="-560" y="1070" as="sourcePoint" />
            <mxPoint x="-560" y="1290" as="targetPoint" />
            <Array as="points">
              <mxPoint x="-660" y="1510" />
              <mxPoint x="-660" y="1510" />
            </Array>
          </mxGeometry>
        </mxCell>
        <mxCell id="tcyeyqYYjEs2dD01uN-m-45" style="edgeStyle=orthogonalEdgeStyle;rounded=0;orthogonalLoop=1;jettySize=auto;html=1;fillColor=#f8cecc;strokeColor=#b85450;strokeWidth=3;endArrow=block;endFill=1;" parent="1" source="4ykmWAmMERI5UxWi80vG-55" target="tcyeyqYYjEs2dD01uN-m-56" edge="1">
          <mxGeometry relative="1" as="geometry">
            <mxPoint x="-139.25" y="1250" as="sourcePoint" />
            <mxPoint x="-120.00000000000045" y="1700" as="targetPoint" />
            <Array as="points">
              <mxPoint x="-490" y="1790" />
              <mxPoint x="-490" y="1790" />
            </Array>
          </mxGeometry>
        </mxCell>
        <mxCell id="tcyeyqYYjEs2dD01uN-m-46" value="&lt;font face=&quot;Lucida Console&quot; color=&quot;#ea6b66&quot;&gt;&lt;span style=&quot;font-size: 18px;&quot;&gt;&lt;b&gt;Report $$\mathbf{g},\mathbf{H}$$&lt;/b&gt;&lt;/span&gt;&lt;/font&gt;" style="text;html=1;align=center;verticalAlign=middle;resizable=0;points=[];autosize=1;strokeColor=none;fillColor=none;" parent="1" vertex="1">
          <mxGeometry x="-370" y="1790" width="380" height="40" as="geometry" />
        </mxCell>
        <mxCell id="tcyeyqYYjEs2dD01uN-m-48" value="&lt;div&gt;&lt;span style=&quot;font-size: 19px;&quot;&gt;&lt;b&gt;&lt;font face=&quot;Lucida Console&quot;&gt;Global Contact System:&lt;/font&gt;&lt;/b&gt;&lt;/span&gt;&lt;/div&gt;&lt;div&gt;&lt;span style=&quot;font-size: 19px;&quot;&gt;&lt;b&gt;&lt;font face=&quot;Lucida Console&quot;&gt;- compute_grad_hess();&lt;/font&gt;&lt;/b&gt;&lt;/span&gt;&lt;/div&gt;" style="text;html=1;align=center;verticalAlign=middle;resizable=1;points=[];autosize=0;strokeColor=#666666;fillColor=#f5f5f5;fontColor=#333333;rounded=1;" parent="1" vertex="1">
          <mxGeometry x="78.25" y="1240" width="363.5" height="140" as="geometry" />
        </mxCell>
        <mxCell id="tcyeyqYYjEs2dD01uN-m-49" value="&lt;font face=&quot;Lucida Console&quot;&gt;&lt;span style=&quot;font-size: 19px;&quot;&gt;&lt;b&gt;Global Linear System:&lt;br&gt;- solve();&lt;br&gt;&lt;/b&gt;&lt;/span&gt;&lt;/font&gt;" style="text;html=1;align=center;verticalAlign=middle;resizable=1;points=[];autosize=0;strokeColor=#666666;fillColor=#f5f5f5;fontColor=#333333;rounded=1;" parent="1" vertex="1">
          <mxGeometry x="125.5" y="1673" width="297" height="157" as="geometry" />
        </mxCell>
        <mxCell id="tcyeyqYYjEs2dD01uN-m-50" value="&lt;div&gt;&lt;span style=&quot;font-size: 19px;&quot;&gt;&lt;b&gt;&lt;font face=&quot;Lucida Console&quot;&gt;ABD Contact&lt;/font&gt;&lt;/b&gt;&lt;/span&gt;&lt;/div&gt;" style="text;html=1;align=center;verticalAlign=middle;resizable=1;points=[];autosize=0;strokeColor=#d6b656;fillColor=#fff2cc;rounded=1;" parent="1" vertex="1">
          <mxGeometry x="16.5" y="1480" width="254" height="50" as="geometry" />
        </mxCell>
        <mxCell id="tcyeyqYYjEs2dD01uN-m-51" value="&lt;div&gt;&lt;span style=&quot;font-size: 19px;&quot;&gt;&lt;b&gt;&lt;font face=&quot;Lucida Console&quot;&gt;ABD-FEM Contact&lt;/font&gt;&lt;/b&gt;&lt;/span&gt;&lt;/div&gt;" style="text;html=1;align=center;verticalAlign=middle;resizable=1;points=[];autosize=0;strokeColor=#d6b656;fillColor=#fff2cc;rounded=1;" parent="1" vertex="1">
          <mxGeometry x="310" y="1480" width="254" height="50" as="geometry" />
        </mxCell>
        <mxCell id="tcyeyqYYjEs2dD01uN-m-53" style="edgeStyle=orthogonalEdgeStyle;rounded=0;orthogonalLoop=1;jettySize=auto;html=1;fillColor=#d5e8d4;strokeColor=#82b366;strokeWidth=3;endArrow=block;endFill=1;" parent="1" source="tcyeyqYYjEs2dD01uN-m-48" target="tcyeyqYYjEs2dD01uN-m-50" edge="1">
          <mxGeometry relative="1" as="geometry">
            <mxPoint x="-301.5" y="1070" as="sourcePoint" />
            <mxPoint x="-538.5" y="1360" as="targetPoint" />
            <Array as="points" />
          </mxGeometry>
        </mxCell>
        <mxCell id="tcyeyqYYjEs2dD01uN-m-54" style="edgeStyle=orthogonalEdgeStyle;rounded=0;orthogonalLoop=1;jettySize=auto;html=1;fillColor=#f8cecc;strokeColor=#b85450;strokeWidth=3;endArrow=block;endFill=1;" parent="1" source="tcyeyqYYjEs2dD01uN-m-50" target="tcyeyqYYjEs2dD01uN-m-49" edge="1">
          <mxGeometry relative="1" as="geometry">
            <mxPoint x="-1.5" y="1310" as="sourcePoint" />
            <mxPoint x="208.5" y="1703" as="targetPoint" />
            <Array as="points" />
          </mxGeometry>
        </mxCell>
        <mxCell id="tcyeyqYYjEs2dD01uN-m-55" style="edgeStyle=orthogonalEdgeStyle;rounded=0;orthogonalLoop=1;jettySize=auto;html=1;fillColor=#f8cecc;strokeColor=#b85450;strokeWidth=3;endArrow=block;endFill=1;" parent="1" source="tcyeyqYYjEs2dD01uN-m-51" target="tcyeyqYYjEs2dD01uN-m-49" edge="1">
          <mxGeometry relative="1" as="geometry">
            <mxPoint x="518.4969230769233" y="1699.92" as="sourcePoint" />
            <mxPoint x="518.4969230769233" y="1932.92" as="targetPoint" />
            <Array as="points" />
          </mxGeometry>
        </mxCell>
        <mxCell id="tcyeyqYYjEs2dD01uN-m-56" value="&lt;font face=&quot;Lucida Console&quot;&gt;&lt;span style=&quot;font-size: 19px;&quot;&gt;&lt;b&gt;Line Search:&lt;br&gt;- step_forward();&lt;br&gt;- compute_energy();&lt;br&gt;&lt;/b&gt;&lt;/span&gt;&lt;/font&gt;" style="text;html=1;align=center;verticalAlign=middle;resizable=1;points=[];autosize=0;strokeColor=#666666;fillColor=#f5f5f5;fontColor=#333333;rounded=1;" parent="1" vertex="1">
          <mxGeometry x="-580" y="1840" width="254" height="180" as="geometry" />
        </mxCell>
        <mxCell id="tcyeyqYYjEs2dD01uN-m-57" style="edgeStyle=orthogonalEdgeStyle;rounded=0;orthogonalLoop=1;jettySize=auto;html=1;fillColor=#d5e8d4;strokeColor=#82b366;strokeWidth=3;endArrow=block;endFill=1;" parent="1" source="tcyeyqYYjEs2dD01uN-m-48" target="tcyeyqYYjEs2dD01uN-m-51" edge="1">
          <mxGeometry relative="1" as="geometry">
            <mxPoint x="198.5" y="1150" as="sourcePoint" />
            <mxPoint x="198.5" y="1470" as="targetPoint" />
            <Array as="points" />
          </mxGeometry>
        </mxCell>
        <mxCell id="tcyeyqYYjEs2dD01uN-m-58" style="edgeStyle=orthogonalEdgeStyle;rounded=0;orthogonalLoop=1;jettySize=auto;html=1;fillColor=#f8cecc;strokeColor=#b85450;strokeWidth=3;endArrow=block;endFill=1;" parent="1" source="4ykmWAmMERI5UxWi80vG-55" target="tcyeyqYYjEs2dD01uN-m-49" edge="1">
          <mxGeometry relative="1" as="geometry">
            <mxPoint x="-430" y="1330" as="sourcePoint" />
            <mxPoint x="-183" y="1733" as="targetPoint" />
            <Array as="points">
              <mxPoint x="-360" y="1760" />
            </Array>
          </mxGeometry>
        </mxCell>
        <mxCell id="tcyeyqYYjEs2dD01uN-m-59" value="&lt;font face=&quot;Lucida Console&quot; color=&quot;#ea6b66&quot;&gt;&lt;span style=&quot;font-size: 18px;&quot;&gt;&lt;b&gt;Report E&lt;/b&gt;&lt;/span&gt;&lt;/font&gt;" style="text;html=1;align=center;verticalAlign=middle;resizable=0;points=[];autosize=1;strokeColor=none;fillColor=none;" parent="1" vertex="1">
          <mxGeometry x="-608" y="1650" width="110" height="40" as="geometry" />
        </mxCell>
        <mxCell id="KO0qiyKSdsOULYH5LZ2d-1" style="edgeStyle=orthogonalEdgeStyle;rounded=0;orthogonalLoop=1;jettySize=auto;html=1;fillColor=#f8cecc;strokeColor=#b85450;strokeWidth=3;endArrow=block;endFill=1;" parent="1" target="4ykmWAmMERI5UxWi80vG-47" edge="1">
          <mxGeometry relative="1" as="geometry">
            <mxPoint x="-360" y="1039.9999999999995" as="sourcePoint" />
            <mxPoint x="92.5" y="959.9999999999995" as="targetPoint" />
            <Array as="points">
              <mxPoint x="-100" y="1040" />
              <mxPoint x="-100" y="950" />
            </Array>
          </mxGeometry>
        </mxCell>
        <mxCell id="KO0qiyKSdsOULYH5LZ2d-2" value="&lt;font face=&quot;Lucida Console&quot; color=&quot;#ea6b66&quot;&gt;&lt;span style=&quot;font-size: 18px;&quot;&gt;&lt;b&gt;Report Surface&lt;/b&gt;&lt;/span&gt;&lt;/font&gt;" style="text;html=1;align=center;verticalAlign=middle;resizable=0;points=[];autosize=1;strokeColor=none;fillColor=none;" parent="1" vertex="1">
          <mxGeometry x="-290" y="1040" width="180" height="40" as="geometry" />
        </mxCell>
        <mxCell id="KO0qiyKSdsOULYH5LZ2d-13" style="edgeStyle=orthogonalEdgeStyle;rounded=0;orthogonalLoop=1;jettySize=auto;html=1;fillColor=#f8cecc;strokeColor=#b85450;strokeWidth=3;endArrow=block;endFill=1;" parent="1" source="KO0qiyKSdsOULYH5LZ2d-7" target="tcyeyqYYjEs2dD01uN-m-48" edge="1">
          <mxGeometry relative="1" as="geometry">
            <Array as="points">
              <mxPoint x="170" y="1320" />
              <mxPoint x="170" y="1320" />
            </Array>
          </mxGeometry>
        </mxCell>
        <mxCell id="KO0qiyKSdsOULYH5LZ2d-7" value="&lt;div&gt;&lt;span style=&quot;font-size: 19px;&quot;&gt;&lt;b&gt;&lt;font face=&quot;Lucida Console&quot;&gt;Ex-ExGeo DCD&lt;/font&gt;&lt;/b&gt;&lt;/span&gt;&lt;/div&gt;" style="text;html=1;align=center;verticalAlign=middle;resizable=1;points=[];autosize=0;strokeColor=#d6b656;fillColor=#fff2cc;rounded=1;" parent="1" vertex="1">
          <mxGeometry x="50" y="1130" width="200" height="70" as="geometry" />
        </mxCell>
        <mxCell id="KO0qiyKSdsOULYH5LZ2d-8" value="&lt;font face=&quot;Lucida Console&quot;&gt;&lt;span style=&quot;font-size: 19px;&quot;&gt;&lt;b&gt;Ex-ExGeo CCD&lt;/b&gt;&lt;/span&gt;&lt;/font&gt;" style="text;html=1;align=center;verticalAlign=middle;resizable=1;points=[];autosize=0;strokeColor=#d6b656;fillColor=#fff2cc;rounded=1;" parent="1" vertex="1">
          <mxGeometry x="560" y="1130" width="170" height="70" as="geometry" />
        </mxCell>
        <mxCell id="KO0qiyKSdsOULYH5LZ2d-11" style="edgeStyle=orthogonalEdgeStyle;rounded=0;orthogonalLoop=1;jettySize=auto;html=1;fillColor=#d5e8d4;strokeColor=#82b366;strokeWidth=3;endArrow=block;endFill=1;" parent="1" source="4ykmWAmMERI5UxWi80vG-47" target="KO0qiyKSdsOULYH5LZ2d-7" edge="1">
          <mxGeometry relative="1" as="geometry">
            <mxPoint x="266.5" y="1140" as="sourcePoint" />
            <mxPoint x="266" y="1460" as="targetPoint" />
            <Array as="points">
              <mxPoint x="155" y="1080" />
              <mxPoint x="155" y="1080" />
            </Array>
          </mxGeometry>
        </mxCell>
        <mxCell id="KO0qiyKSdsOULYH5LZ2d-14" value="&lt;div&gt;&lt;font face=&quot;Lucida Console&quot; color=&quot;#97d077&quot;&gt;&lt;span style=&quot;font-size: 18px;&quot;&gt;&lt;b&gt;Partition&lt;/b&gt;&lt;/span&gt;&lt;/font&gt;&lt;/div&gt;&lt;div&gt;&lt;font face=&quot;Lucida Console&quot; color=&quot;#97d077&quot;&gt;&lt;span style=&quot;font-size: 18px;&quot;&gt;&lt;b&gt;By Vertex ID&lt;/b&gt;&lt;/span&gt;&lt;/font&gt;&lt;/div&gt;" style="text;html=1;align=center;verticalAlign=middle;resizable=0;points=[];autosize=1;strokeColor=none;fillColor=none;" parent="1" vertex="1">
          <mxGeometry x="-34.5" y="1410" width="160" height="60" as="geometry" />
        </mxCell>
        <mxCell id="KO0qiyKSdsOULYH5LZ2d-15" style="edgeStyle=orthogonalEdgeStyle;rounded=0;orthogonalLoop=1;jettySize=auto;html=1;fillColor=#f8cecc;strokeColor=#b85450;strokeWidth=3;endArrow=block;endFill=1;" parent="1" source="4ykmWAmMERI5UxWi80vG-47" target="KO0qiyKSdsOULYH5LZ2d-8" edge="1">
          <mxGeometry relative="1" as="geometry">
            <mxPoint x="385" y="1130" as="sourcePoint" />
            <mxPoint x="-22" y="1330" as="targetPoint" />
            <Array as="points">
              <mxPoint x="490" y="990" />
              <mxPoint x="490" y="990" />
            </Array>
          </mxGeometry>
        </mxCell>
        <mxCell id="Njj_J-uMyo0HDCEYLEBp-1" value="&lt;div&gt;&lt;span style=&quot;font-size: 19px;&quot;&gt;&lt;b&gt;&lt;font face=&quot;Lucida Console&quot;&gt;Im-ExGeo DCD&lt;/font&gt;&lt;/b&gt;&lt;/span&gt;&lt;/div&gt;" style="text;html=1;align=center;verticalAlign=middle;resizable=1;points=[];autosize=0;strokeColor=#d6b656;fillColor=#fff2cc;rounded=1;" parent="1" vertex="1">
          <mxGeometry x="280" y="1130" width="210" height="70" as="geometry" />
        </mxCell>
        <mxCell id="Njj_J-uMyo0HDCEYLEBp-2" style="edgeStyle=orthogonalEdgeStyle;rounded=0;orthogonalLoop=1;jettySize=auto;html=1;fillColor=#d5e8d4;strokeColor=#82b366;strokeWidth=3;endArrow=block;endFill=1;" parent="1" source="4ykmWAmMERI5UxWi80vG-47" target="Njj_J-uMyo0HDCEYLEBp-1" edge="1">
          <mxGeometry relative="1" as="geometry">
            <mxPoint x="240" y="1000" as="sourcePoint" />
            <mxPoint x="240" y="1080" as="targetPoint" />
            <Array as="points">
              <mxPoint x="380" y="1080" />
              <mxPoint x="380" y="1080" />
            </Array>
          </mxGeometry>
        </mxCell>
        <mxCell id="Njj_J-uMyo0HDCEYLEBp-3" value="&lt;div&gt;&lt;font face=&quot;Lucida Console&quot; color=&quot;#97d077&quot;&gt;&lt;span style=&quot;font-size: 18px;&quot;&gt;&lt;b&gt;Partition&lt;/b&gt;&lt;/span&gt;&lt;/font&gt;&lt;/div&gt;&lt;div&gt;&lt;font face=&quot;Lucida Console&quot; color=&quot;#97d077&quot;&gt;&lt;span style=&quot;font-size: 18px;&quot;&gt;&lt;b&gt;By Geo Type&lt;/b&gt;&lt;/span&gt;&lt;/font&gt;&lt;/div&gt;" style="text;html=1;align=center;verticalAlign=middle;resizable=0;points=[];autosize=1;strokeColor=none;fillColor=none;" parent="1" vertex="1">
          <mxGeometry x="200" y="1050" width="150" height="60" as="geometry" />
        </mxCell>
        <mxCell id="Njj_J-uMyo0HDCEYLEBp-4" value="&lt;font style=&quot;font-size: 18px;&quot;&gt;$$E,\mathbf{g},\mathbf{H}$$&lt;/font&gt;" style="text;html=1;align=center;verticalAlign=middle;resizable=1;points=[];autosize=0;strokeColor=#9673a6;fillColor=#e1d5e7;rounded=1;" parent="1" vertex="1">
          <mxGeometry x="-20" y="1240" width="100" height="140" as="geometry" />
        </mxCell>
        <mxCell id="Njj_J-uMyo0HDCEYLEBp-5" value="&lt;font face=&quot;Lucida Console&quot; color=&quot;#ea6b66&quot;&gt;&lt;span style=&quot;font-size: 18px;&quot;&gt;&lt;b&gt;Report g/H&lt;/b&gt;&lt;/span&gt;&lt;/font&gt;" style="text;html=1;align=center;verticalAlign=middle;resizable=0;points=[];autosize=1;strokeColor=none;fillColor=none;" parent="1" vertex="1">
          <mxGeometry x="282.5" y="1630" width="140" height="40" as="geometry" />
        </mxCell>
        <mxCell id="Njj_J-uMyo0HDCEYLEBp-6" style="edgeStyle=orthogonalEdgeStyle;rounded=0;orthogonalLoop=1;jettySize=auto;html=1;fillColor=#f8cecc;strokeColor=#b85450;strokeWidth=3;endArrow=block;endFill=1;" parent="1" source="tcyeyqYYjEs2dD01uN-m-48" target="tcyeyqYYjEs2dD01uN-m-56" edge="1">
          <mxGeometry relative="1" as="geometry">
            <mxPoint x="-490" y="1330" as="sourcePoint" />
            <mxPoint x="-490" y="2030" as="targetPoint" />
            <Array as="points">
              <mxPoint x="600" y="1290" />
              <mxPoint x="600" y="1900" />
            </Array>
          </mxGeometry>
        </mxCell>
        <mxCell id="Njj_J-uMyo0HDCEYLEBp-7" value="&lt;font face=&quot;Lucida Console&quot; color=&quot;#ea6b66&quot;&gt;&lt;span style=&quot;font-size: 18px;&quot;&gt;&lt;b&gt;Report E&lt;/b&gt;&lt;/span&gt;&lt;/font&gt;" style="text;html=1;align=center;verticalAlign=middle;resizable=0;points=[];autosize=1;strokeColor=none;fillColor=none;" parent="1" vertex="1">
          <mxGeometry x="150" y="1860" width="110" height="40" as="geometry" />
        </mxCell>
        <mxCell id="Njj_J-uMyo0HDCEYLEBp-10" style="edgeStyle=orthogonalEdgeStyle;rounded=0;orthogonalLoop=1;jettySize=auto;html=1;fillColor=#d5e8d4;strokeColor=#82b366;strokeWidth=3;endArrow=block;endFill=1;" parent="1" source="tcyeyqYYjEs2dD01uN-m-56" target="4ykmWAmMERI5UxWi80vG-55" edge="1">
          <mxGeometry relative="1" as="geometry">
            <mxPoint x="-490" y="1330" as="sourcePoint" />
            <mxPoint x="-490" y="2030" as="targetPoint" />
            <Array as="points">
              <mxPoint x="-470" y="1790" />
              <mxPoint x="-470" y="1790" />
            </Array>
          </mxGeometry>
        </mxCell>
        <mxCell id="Njj_J-uMyo0HDCEYLEBp-11" value="&lt;div&gt;&lt;font face=&quot;Lucida Console&quot; color=&quot;#97d077&quot;&gt;&lt;span style=&quot;font-size: 18px;&quot;&gt;&lt;b&gt;Receive&lt;/b&gt;&lt;/span&gt;&lt;/font&gt;&lt;b style=&quot;font-size: 18px; color: rgb(151, 208, 119); font-family: &amp;quot;Lucida Console&amp;quot;; background-color: initial;&quot;&gt;$$\alpha$$&lt;/b&gt;&lt;/div&gt;" style="text;html=1;align=center;verticalAlign=middle;resizable=0;points=[];autosize=1;strokeColor=none;fillColor=none;" parent="1" vertex="1">
          <mxGeometry x="-523" y="1790" width="210" height="40" as="geometry" />
        </mxCell>
        <mxCell id="Njj_J-uMyo0HDCEYLEBp-14" value="&lt;font style=&quot;font-size: 18px;&quot;&gt;$$E,\alpha$$&lt;/font&gt;" style="text;html=1;align=center;verticalAlign=middle;resizable=1;points=[];autosize=0;strokeColor=#9673a6;fillColor=#e1d5e7;rounded=1;" parent="1" vertex="1">
          <mxGeometry x="-577" y="2020" width="100" height="70" as="geometry" />
        </mxCell>
        <mxCell id="Njj_J-uMyo0HDCEYLEBp-15" style="edgeStyle=orthogonalEdgeStyle;rounded=0;orthogonalLoop=1;jettySize=auto;html=1;fillColor=#f8cecc;strokeColor=#b85450;strokeWidth=3;endArrow=block;endFill=1;jumpStyle=arc;jumpSize=29;" parent="1" source="4ykmWAmMERI5UxWi80vG-55" target="4ykmWAmMERI5UxWi80vG-42" edge="1">
          <mxGeometry relative="1" as="geometry">
            <mxPoint x="-420" y="1330" as="sourcePoint" />
            <mxPoint x="135" y="1733" as="targetPoint" />
            <Array as="points">
              <mxPoint x="-330" y="1260" />
              <mxPoint x="-330" y="1260" />
            </Array>
          </mxGeometry>
        </mxCell>
        <mxCell id="Njj_J-uMyo0HDCEYLEBp-16" value="&lt;font face=&quot;Lucida Console&quot; color=&quot;#ea6b66&quot;&gt;&lt;span style=&quot;font-size: 18px;&quot;&gt;&lt;b&gt;report$$\Delta \mathbf{x}$$&lt;/b&gt;&lt;/span&gt;&lt;/font&gt;" style="text;html=1;align=center;verticalAlign=middle;resizable=0;points=[];autosize=1;strokeColor=none;fillColor=none;" parent="1" vertex="1">
          <mxGeometry x="-452" y="1200" width="330" height="40" as="geometry" />
        </mxCell>
        <mxCell id="Njj_J-uMyo0HDCEYLEBp-17" style="edgeStyle=orthogonalEdgeStyle;rounded=0;orthogonalLoop=1;jettySize=auto;html=1;fillColor=#d5e8d4;strokeColor=#82b366;strokeWidth=3;endArrow=block;endFill=1;exitX=0.007;exitY=0.347;exitDx=0;exitDy=0;exitPerimeter=0;" parent="1" source="tcyeyqYYjEs2dD01uN-m-49" target="4ykmWAmMERI5UxWi80vG-55" edge="1">
          <mxGeometry relative="1" as="geometry">
            <mxPoint x="-470" y="2030" as="sourcePoint" />
            <mxPoint x="-470" y="1420" as="targetPoint" />
            <Array as="points">
              <mxPoint x="-340" y="1734" />
            </Array>
          </mxGeometry>
        </mxCell>
        <mxCell id="Njj_J-uMyo0HDCEYLEBp-18" value="&lt;div&gt;&lt;font face=&quot;Lucida Console&quot; color=&quot;#97d077&quot;&gt;&lt;span style=&quot;font-size: 18px;&quot;&gt;&lt;b&gt;Receive&lt;/b&gt;&lt;/span&gt;&lt;/font&gt;&lt;b style=&quot;font-size: 18px; color: rgb(151, 208, 119); font-family: &amp;quot;Lucida Console&amp;quot;; background-color: initial;&quot;&gt;$$\Delta \mathbf{q}$$&lt;/b&gt;&lt;/div&gt;" style="text;html=1;align=center;verticalAlign=middle;resizable=0;points=[];autosize=1;strokeColor=none;fillColor=none;" parent="1" vertex="1">
          <mxGeometry x="-323.5" y="1680" width="340" height="40" as="geometry" />
        </mxCell>
        <mxCell id="Njj_J-uMyo0HDCEYLEBp-20" style="edgeStyle=orthogonalEdgeStyle;rounded=0;orthogonalLoop=1;jettySize=auto;html=1;fillColor=#f8cecc;strokeColor=#b85450;strokeWidth=3;endArrow=block;endFill=1;" parent="1" source="Njj_J-uMyo0HDCEYLEBp-1" target="tcyeyqYYjEs2dD01uN-m-48" edge="1">
          <mxGeometry relative="1" as="geometry">
            <Array as="points">
              <mxPoint x="395" y="1220" />
              <mxPoint x="395" y="1220" />
            </Array>
            <mxPoint x="165" y="1185" as="sourcePoint" />
            <mxPoint x="165" y="1250" as="targetPoint" />
          </mxGeometry>
        </mxCell>
        <mxCell id="Njj_J-uMyo0HDCEYLEBp-23" style="edgeStyle=orthogonalEdgeStyle;rounded=0;orthogonalLoop=1;jettySize=auto;html=1;fillColor=#f8cecc;strokeColor=#b85450;strokeWidth=3;endArrow=block;endFill=1;" parent="1" source="KO0qiyKSdsOULYH5LZ2d-8" target="Njj_J-uMyo0HDCEYLEBp-33" edge="1">
          <mxGeometry relative="1" as="geometry">
            <mxPoint x="446" y="1300" as="sourcePoint" />
            <mxPoint x="745" y="1415" as="targetPoint" />
            <Array as="points">
              <mxPoint x="645" y="1350" />
              <mxPoint x="750" y="1350" />
            </Array>
          </mxGeometry>
        </mxCell>
        <mxCell id="Njj_J-uMyo0HDCEYLEBp-24" value="&lt;font face=&quot;Lucida Console&quot; color=&quot;#ea6b66&quot;&gt;&lt;span style=&quot;font-size: 18px;&quot;&gt;&lt;b&gt;Report filter&lt;/b&gt;&lt;/span&gt;&lt;/font&gt;" style="text;html=1;align=center;verticalAlign=middle;resizable=0;points=[];autosize=1;strokeColor=none;fillColor=none;" parent="1" vertex="1">
          <mxGeometry x="140" y="1940" width="170" height="40" as="geometry" />
        </mxCell>
        <mxCell id="Njj_J-uMyo0HDCEYLEBp-25" value="&lt;font face=&quot;Lucida Console&quot;&gt;&lt;span style=&quot;font-size: 19px;&quot;&gt;&lt;b&gt;Im-ExGeo CCD&lt;/b&gt;&lt;/span&gt;&lt;/font&gt;" style="text;html=1;align=center;verticalAlign=middle;resizable=1;points=[];autosize=0;strokeColor=#d6b656;fillColor=#fff2cc;rounded=1;" parent="1" vertex="1">
          <mxGeometry x="770" y="1130" width="170" height="70" as="geometry" />
        </mxCell>
        <mxCell id="Njj_J-uMyo0HDCEYLEBp-27" style="edgeStyle=orthogonalEdgeStyle;rounded=0;orthogonalLoop=1;jettySize=auto;html=1;fillColor=#f8cecc;strokeColor=#b85450;strokeWidth=3;endArrow=block;endFill=1;" parent="1" source="4ykmWAmMERI5UxWi80vG-47" target="Njj_J-uMyo0HDCEYLEBp-25" edge="1">
          <mxGeometry relative="1" as="geometry">
            <mxPoint x="433" y="1005" as="sourcePoint" />
            <mxPoint x="590" y="1005" as="targetPoint" />
            <Array as="points">
              <mxPoint x="850" y="970" />
            </Array>
          </mxGeometry>
        </mxCell>
        <mxCell id="Njj_J-uMyo0HDCEYLEBp-29" value="&lt;font face=&quot;Lucida Console&quot; color=&quot;#ea6b66&quot;&gt;&lt;span style=&quot;font-size: 18px;&quot;&gt;&lt;b&gt;Report $$E,\mathbf{g},\mathbf{H}$$&lt;/b&gt;&lt;/span&gt;&lt;/font&gt;" style="text;html=1;align=center;verticalAlign=middle;resizable=0;points=[];autosize=1;strokeColor=none;fillColor=none;" parent="1" vertex="1">
          <mxGeometry x="-900" y="1540" width="400" height="40" as="geometry" />
        </mxCell>
        <mxCell id="Njj_J-uMyo0HDCEYLEBp-32" style="edgeStyle=orthogonalEdgeStyle;rounded=0;orthogonalLoop=1;jettySize=auto;html=1;fillColor=#f8cecc;strokeColor=#b85450;strokeWidth=3;endArrow=block;endFill=1;" parent="1" source="Njj_J-uMyo0HDCEYLEBp-33" target="tcyeyqYYjEs2dD01uN-m-56" edge="1">
          <mxGeometry relative="1" as="geometry">
            <mxPoint x="745" y="1465" as="sourcePoint" />
            <mxPoint x="-316" y="1910" as="targetPoint" />
            <Array as="points">
              <mxPoint x="750" y="1930" />
            </Array>
          </mxGeometry>
        </mxCell>
        <mxCell id="Njj_J-uMyo0HDCEYLEBp-33" value="&lt;font face=&quot;Lucida Console&quot;&gt;&lt;span style=&quot;font-size: 19px;&quot;&gt;&lt;b&gt;CCD Filter&lt;br&gt;&lt;/b&gt;&lt;/span&gt;&lt;/font&gt;" style="text;html=1;align=center;verticalAlign=middle;resizable=1;points=[];autosize=0;strokeColor=#666666;fillColor=#f5f5f5;fontColor=#333333;rounded=1;" parent="1" vertex="1">
          <mxGeometry x="650.5" y="1433" width="193" height="57" as="geometry" />
        </mxCell>
        <mxCell id="Njj_J-uMyo0HDCEYLEBp-34" style="edgeStyle=orthogonalEdgeStyle;rounded=0;orthogonalLoop=1;jettySize=auto;html=1;fillColor=#f8cecc;strokeColor=#b85450;strokeWidth=3;endArrow=block;endFill=1;" parent="1" source="Njj_J-uMyo0HDCEYLEBp-25" target="Njj_J-uMyo0HDCEYLEBp-33" edge="1">
          <mxGeometry relative="1" as="geometry">
            <mxPoint x="655" y="1210" as="sourcePoint" />
            <mxPoint x="755" y="1443" as="targetPoint" />
            <Array as="points">
              <mxPoint x="850" y="1350" />
              <mxPoint x="750" y="1350" />
            </Array>
          </mxGeometry>
        </mxCell>
        <mxCell id="Njj_J-uMyo0HDCEYLEBp-35" value="&lt;font face=&quot;Lucida Console&quot;&gt;&lt;span style=&quot;font-size: 19px;&quot;&gt;&lt;b&gt;CFL Filter&lt;br&gt;&lt;/b&gt;&lt;/span&gt;&lt;/font&gt;" style="text;html=1;align=center;verticalAlign=middle;resizable=1;points=[];autosize=0;strokeColor=#666666;fillColor=#f5f5f5;fontColor=#333333;rounded=1;" parent="1" vertex="1">
          <mxGeometry x="-983.5" y="1910" width="193" height="57" as="geometry" />
        </mxCell>
        <mxCell id="Njj_J-uMyo0HDCEYLEBp-36" style="edgeStyle=orthogonalEdgeStyle;rounded=0;orthogonalLoop=1;jettySize=auto;html=1;fillColor=#f8cecc;strokeColor=#b85450;strokeWidth=3;endArrow=block;endFill=1;exitX=1;exitY=0.544;exitDx=0;exitDy=0;exitPerimeter=0;" parent="1" source="Njj_J-uMyo0HDCEYLEBp-35" target="tcyeyqYYjEs2dD01uN-m-56" edge="1">
          <mxGeometry relative="1" as="geometry">
            <mxPoint x="760" y="1500" as="sourcePoint" />
            <mxPoint x="-316" y="1940" as="targetPoint" />
            <Array as="points">
              <mxPoint x="-757" y="1940" />
            </Array>
          </mxGeometry>
        </mxCell>
        <mxCell id="Njj_J-uMyo0HDCEYLEBp-37" value="&lt;font face=&quot;Lucida Console&quot; color=&quot;#ea6b66&quot;&gt;&lt;span style=&quot;font-size: 18px;&quot;&gt;&lt;b&gt;Report filter&lt;/b&gt;&lt;/span&gt;&lt;/font&gt;" style="text;html=1;align=center;verticalAlign=middle;resizable=0;points=[];autosize=1;strokeColor=none;fillColor=none;" parent="1" vertex="1">
          <mxGeometry x="-775" y="1900" width="170" height="40" as="geometry" />
        </mxCell>
      </root>
    </mxGraphModel>
  </diagram>
</mxfile>
